<?xml version="1.0" ?>
<svg xmlns="http://www.w3.org/2000/svg" version="1.1" width="400" height="400">
	<g fill="none" stroke-linecap="butt">
		<path stroke="#043083" d="M 64.00 154.00 L 64.00 154.00 C 64.00 154.00 63.55 155.35 63.00 157.00 C 62.45 158.65 62.23 162.93 62.50 166.50 C 62.77 170.07 63.67 174.35 64.50 176.00 C 65.33 177.65 67.35 179.90 69.00 181.00 C 70.65 182.10 73.35 183.00 75.00 183.00 C 77.10 183.00 79.06 181.94 81.50 179.50 C 83.42 177.57 85.00 175.10 85.00 174.00 C 85.00 172.13 85.67 172.00 105.00 172.00 L 104.50 176.00 C 104.22 178.20 103.10 181.80 102.00 184.00 C 100.90 186.20 98.65 189.35 97.00 191.00 C 95.35 192.65 91.97 194.90 89.50 196.00 C 86.77 197.21 81.85 198.20 77.00 198.50 C 70.68 198.89 67.74 198.58 57.00 195.00" vector-effect="non-scaling-stroke"/>
		<path stroke="#043083" d="M 49.00 188.00 L 49.00 188.00 C 49.00 188.00 47.65 185.30 46.00 182.00 C 43.19 176.38 43.00 175.28 43.00 164.50 C 43.00 154.23 43.27 152.46 45.50 148.00 C 46.88 145.25 49.12 141.65 50.50 140.00 C 51.88 138.35 55.70 135.65 59.00 134.00 C 64.47 131.27 65.89 131.00 75.00 131.00 C 83.53 131.00 85.81 131.37 90.50 133.50 C 93.53 134.88 96.90 137.12 100.00 141.00" vector-effect="non-scaling-stroke"/>
		<path stroke="#033083" d="M 182.00 198.00 L 182.00 198.00 C 182.00 198.00 181.10 197.78 180.00 197.50 C 178.05 197.01 178.00 196.17 178.00 164.50 C 178.00 146.62 178.22 131.78 178.50 131.50 C 178.78 131.22 182.38 131.22 194.00 132.00" vector-effect="non-scaling-stroke"/>
		<path stroke="#032F84" d="M 111.00 132.00 L 131.00 132.00 C 142.00 132.00 152.12 132.45 153.50 133.00 C 154.88 133.55 157.57 134.68 159.50 135.50 C 161.43 136.32 164.12 138.35 165.50 140.00 C 166.88 141.65 168.45 143.90 169.00 145.00 C 169.55 146.10 170.68 148.57 171.50 150.50 C 172.50 152.83 173.00 157.33 173.00 164.00 C 173.00 169.50 172.55 175.57 172.00 177.50 C 171.45 179.43 169.65 183.03 168.00 185.50 C 166.27 188.09 163.09 191.06 160.50 192.50 C 158.03 193.88 153.53 195.68 150.50 196.50 C 146.62 197.56 140.00 198.00 128.00 198.00 C 118.65 198.00 111.00 197.78 111.00 197.50 C 111.00 197.22 111.00 182.38 111.00 132.00" vector-effect="non-scaling-stroke"/>
		<path stroke="#033084" d="M 194.00 132.00 L 194.00 132.00 C 194.00 132.00 197.15 132.00 201.00 132.00 C 207.17 132.00 208.06 132.24 208.50 134.00 C 208.78 135.10 209.90 139.38 213.00 151.00" vector-effect="non-scaling-stroke"/>
		<path stroke="#033084" d="M 217.00 170.00 L 217.00 170.00 C 217.00 170.00 218.57 164.38 220.50 157.50 C 222.43 150.62 224.22 143.88 224.50 142.50 C 224.78 141.12 225.22 139.10 226.00 136.00" vector-effect="non-scaling-stroke"/>
		<path stroke="#033084" d="M 257.00 136.00 L 257.00 136.00 C 257.00 136.00 257.00 147.93 257.00 189.00 L 236.00 189.00 L 236.00 172.50 C 236.00 160.17 235.75 156.76 235.00 159.00 C 234.45 160.65 233.55 164.25 233.00 167.00 C 232.45 169.75 230.88 176.72 229.50 182.50 C 228.12 188.28 226.78 193.90 226.50 195.00 C 226.06 196.77 224.94 197.06 208.00 198.00 L 207.50 195.00 C 207.22 193.35 206.55 189.75 206.00 187.00 C 205.45 184.25 204.55 180.20 204.00 178.00 C 203.45 175.80 202.78 172.65 202.50 171.00 C 202.22 169.35 201.32 165.30 200.50 162.00 C 199.02 156.10 199.00 156.33 199.00 177.00 C 199.00 188.55 198.78 198.00 198.50 198.00 C 198.22 198.00 194.40 198.00 182.00 198.00" vector-effect="non-scaling-stroke"/>
		<path stroke="#033084" d="M 182.00 198.00 L 182.00 198.00 C 182.00 198.00 182.00 197.78 182.00 197.50 C 182.00 197.22 182.90 196.32 186.00 194.00" vector-effect="non-scaling-stroke"/>
		<path stroke="#033084" d="M 191.00 136.00 L 191.00 136.00 C 191.00 136.00 191.45 135.32 192.00 134.50 C 192.55 133.68 193.22 132.78 194.00 132.00" vector-effect="non-scaling-stroke"/>
		<path stroke="#032F83" d="M 257.00 136.00 L 257.00 136.00 C 257.00 136.00 255.88 137.12 254.50 138.50 C 252.39 140.61 251.07 141.00 240.00 141.00" vector-effect="non-scaling-stroke"/>
		<path stroke="#032F83" d="M 236.00 141.00 L 236.00 141.00 C 236.00 141.00 234.88 140.78 233.50 140.50 C 231.63 140.13 231.00 139.37 231.00 137.50 C 231.00 135.67 230.47 135.00 229.00 135.00 C 227.90 135.00 226.78 135.22 226.00 136.00" vector-effect="non-scaling-stroke"/>
		<path stroke="#032F83" d="M 226.00 136.00 L 226.00 136.00 C 226.00 136.00 226.22 135.10 226.50 134.00 C 226.97 132.11 227.83 132.00 242.00 132.00 C 250.25 132.00 257.00 132.22 257.00 132.50 C 257.00 132.78 257.00 133.68 257.00 136.00" vector-effect="non-scaling-stroke"/>
		<path stroke="#FAFDED" d="M 100.50 135.50 C 100.78 135.22 101.67 135.22 102.50 135.50 C 103.33 135.78 104.00 136.90 104.00 138.00 C 104.00 139.50 103.50 139.88 102.00 139.50 C 100.90 139.22 100.00 138.32 100.00 137.50 C 100.00 136.68 100.22 135.78 100.50 135.50" vector-effect="non-scaling-stroke"/>
		<path stroke="#012F93" d="M 185.00 140.00 L 185.00 140.00 C 185.00 140.00 184.32 140.00 183.50 140.00 C 182.67 140.00 182.00 139.11 182.00 138.00 C 182.00 136.90 182.22 136.00 182.50 136.00 C 182.78 136.00 183.90 136.00 187.00 136.00" vector-effect="non-scaling-stroke"/>
		<path stroke="#032F87" d="M 187.00 136.00 L 187.00 136.00 C 187.00 136.00 187.22 136.00 187.50 136.00 C 187.78 136.00 188.68 136.00 191.00 136.00" vector-effect="non-scaling-stroke"/>
		<path stroke="#032F87" d="M 191.00 136.00 L 191.00 136.00 C 191.00 136.00 191.22 136.68 191.50 137.50 C 191.81 138.42 191.23 139.19 190.00 139.50 C 188.90 139.78 188.00 140.45 188.00 141.00 C 188.00 141.55 188.45 142.00 189.00 142.00 C 189.67 142.00 189.67 142.33 189.00 143.00 C 188.39 143.61 188.00 153.33 188.00 168.00 C 188.00 182.67 187.61 192.39 186.00 194.00" vector-effect="non-scaling-stroke"/>
		<path stroke="#032F87" d="M 186.00 194.00 L 186.00 194.00 C 186.00 194.00 186.22 193.32 186.50 192.50 C 186.78 191.68 187.00 180.20 187.00 167.00 C 187.00 151.67 186.64 143.00 186.00 143.00 C 185.45 143.00 185.00 142.32 185.00 140.00" vector-effect="non-scaling-stroke"/>
		<path stroke="#032F87" d="M 185.00 140.00 L 185.00 140.00 C 185.00 140.00 185.45 139.55 186.00 139.00 C 186.55 138.45 187.00 137.55 187.00 136.00" vector-effect="non-scaling-stroke"/>
		<path stroke="#013279" d="M 240.00 141.00 L 240.00 141.00 C 240.00 141.00 239.10 141.22 238.00 141.50 C 236.90 141.78 236.00 141.78 236.00 141.00" vector-effect="non-scaling-stroke"/>
		<path stroke="#013279" d="M 236.00 141.00 L 236.00 141.00 C 236.00 141.00 236.90 140.78 238.00 140.50 C 239.10 140.22 240.00 140.22 240.00 141.00" vector-effect="non-scaling-stroke"/>
		<path stroke="#072F82" d="M 100.00 141.00 L 100.00 141.00 C 100.00 141.00 100.90 142.80 102.00 145.00 C 103.10 147.20 104.22 150.57 105.00 156.00" vector-effect="non-scaling-stroke"/>
		<path stroke="#072F82" d="M 97.00 156.00 L 97.00 156.00 C 97.00 156.00 97.67 155.10 98.50 154.00 C 99.33 152.90 100.00 151.10 100.00 150.00 C 100.00 148.90 99.10 147.32 98.00 146.50 C 96.44 145.33 95.24 145.22 92.50 146.00 C 90.58 146.55 88.78 147.00 88.50 147.00 C 88.22 147.00 88.45 146.32 89.00 145.50 C 89.55 144.68 90.67 144.00 91.50 144.00 C 92.33 144.00 93.22 143.55 93.50 143.00 C 93.78 142.45 95.35 141.78 100.00 141.00" vector-effect="non-scaling-stroke"/>
		<path stroke="#002D94" d="M 231.50 142.50 C 231.78 142.22 232.90 142.00 234.00 142.00 C 235.11 142.00 236.00 142.67 236.00 143.50 C 236.00 144.33 235.11 145.00 234.00 145.00 C 232.90 145.00 231.78 144.55 231.50 144.00 C 231.22 143.45 231.22 142.78 231.50 142.50" vector-effect="non-scaling-stroke"/>
		<path stroke="#F6FBF8" d="M 97.00 156.00 L 97.00 156.00 C 97.00 156.00 97.22 156.00 97.50 156.00 C 97.78 156.00 99.58 156.00 105.00 156.00" vector-effect="non-scaling-stroke"/>
		<path stroke="#F6FBF8" d="M 105.00 156.00 L 105.00 156.00 C 105.00 156.00 99.60 156.45 93.00 157.00 C 82.85 157.85 80.61 157.77 78.50 156.50 C 76.96 155.58 75.81 155.38 75.50 156.00 C 75.22 156.55 73.88 157.22 72.50 157.50 C 70.39 157.92 70.08 157.68 70.50 156.00 C 70.83 154.67 70.50 154.00 69.50 154.00 C 68.67 154.00 67.78 153.10 67.00 150.00 L 64.00 154.00" vector-effect="non-scaling-stroke"/>
		<path stroke="#F6FBF8" d="M 64.00 154.00 L 64.00 154.00 C 64.00 154.00 65.35 152.43 67.00 150.50 C 68.65 148.57 71.12 146.78 72.50 146.50 C 73.98 146.20 76.43 146.81 78.50 148.00 C 80.42 149.10 82.67 151.12 83.50 152.50 C 84.33 153.88 85.22 155.22 85.50 155.50 C 85.78 155.78 88.47 156.00 97.00 156.00" vector-effect="non-scaling-stroke"/>
		<path stroke="#F8FDFC" d="M 131.00 148.00 L 137.00 148.50 C 140.30 148.78 144.35 149.68 146.00 150.50 C 147.65 151.32 149.90 153.35 151.00 155.00 C 152.44 157.17 153.00 159.67 153.00 164.00 C 153.00 167.33 152.33 171.33 151.50 173.00 C 150.68 174.65 149.10 176.90 148.00 178.00 C 146.36 179.64 144.67 180.00 138.50 180.00 C 134.38 180.00 131.00 179.78 131.00 179.50 C 131.00 179.22 131.00 172.03 131.00 148.00" vector-effect="non-scaling-stroke"/>
		<path stroke="#052F81" d="M 213.00 151.00 L 213.00 151.00 C 213.00 151.00 213.45 153.03 214.00 155.50 C 214.55 157.97 215.45 162.25 217.00 170.00" vector-effect="non-scaling-stroke"/>
		<path stroke="#052F81" d="M 217.00 170.00 L 217.00 170.00 C 217.00 170.00 215.88 169.78 214.50 169.50 C 213.12 169.22 211.10 168.78 208.00 168.00" vector-effect="non-scaling-stroke"/>
		<path stroke="#052F81" d="M 208.00 159.00 L 208.00 159.00 C 208.00 159.00 208.45 158.78 209.00 158.50 C 209.55 158.22 209.78 157.10 209.50 156.00 C 209.18 154.74 209.74 153.45 213.00 151.00" vector-effect="non-scaling-stroke"/>
		<path stroke="#FDFEF3" d="M 146.00 158.00 L 146.00 158.00 C 146.00 158.00 145.55 157.78 145.00 157.50 C 144.45 157.22 143.78 157.45 143.50 158.00 C 143.22 158.55 142.32 158.78 141.50 158.50 C 140.68 158.22 140.00 157.55 140.00 157.00 C 140.00 156.45 141.12 155.32 142.50 154.50 C 144.87 153.08 145.05 153.13 147.00 158.00" vector-effect="non-scaling-stroke"/>
		<path stroke="#F4F4EA" d="M 146.00 158.00 L 146.00 158.00 C 146.00 158.00 146.22 158.00 147.00 158.00" vector-effect="non-scaling-stroke"/>
		<path stroke="#F4F4EA" d="M 147.00 158.00 L 147.00 158.00 C 147.00 158.00 147.00 158.22 147.00 158.50 C 147.00 158.78 146.78 158.78 146.00 158.00" vector-effect="non-scaling-stroke"/>
		<path stroke="#022E8E" d="M 208.00 159.00 L 208.00 159.00 C 208.00 159.00 208.45 159.22 209.00 159.50 C 209.55 159.78 210.00 160.90 210.00 162.00 C 210.00 163.10 209.55 164.90 208.00 168.00" vector-effect="non-scaling-stroke"/>
		<path stroke="#022E8E" d="M 208.00 168.00 L 208.00 168.00 C 208.00 168.00 207.78 168.00 207.50 168.00 C 207.22 168.00 206.55 166.43 206.00 164.50 C 205.20 161.70 205.30 160.80 208.00 159.00" vector-effect="non-scaling-stroke"/>
		<path stroke="#F6FBF5" d="M 319.00 190.00 L 319.00 190.00 C 319.00 190.00 319.00 189.10 319.00 188.00 C 319.00 186.90 319.68 185.32 320.50 184.50 C 321.67 183.33 322.67 183.22 325.00 184.00 C 327.00 184.67 328.00 185.67 328.00 187.00 C 328.00 188.10 327.55 189.22 327.00 189.50 C 326.45 189.78 326.23 190.45 326.50 191.00 C 326.79 191.57 326.14 191.79 325.00 191.50 C 323.08 191.02 323.00 191.50 323.00 203.50 C 323.00 210.38 323.23 216.00 324.00 216.00" vector-effect="non-scaling-stroke"/>
		<path stroke="#023087" d="M 72.50 188.00 C 73.88 186.90 76.12 186.00 77.50 186.00 C 78.88 186.00 81.12 186.90 82.50 188.00 C 84.72 189.78 84.83 190.17 83.50 191.50 C 82.67 192.32 80.65 193.00 79.00 193.00 C 77.35 193.00 76.22 192.78 76.50 192.50 C 76.78 192.22 76.33 191.32 75.50 190.50 C 74.39 189.39 73.48 189.26 72.00 190.00 C 70.90 190.55 70.00 190.78 70.00 190.50 C 70.00 190.22 71.12 189.10 72.50 188.00" vector-effect="non-scaling-stroke"/>
		<path stroke="#F7FDF7" d="M 49.00 188.00 L 49.00 188.00 C 49.00 188.00 50.35 189.12 52.00 190.50 C 53.65 191.88 55.45 193.45 57.00 195.00" vector-effect="non-scaling-stroke"/>
		<path stroke="#F7FDF7" d="M 57.00 195.00 L 57.00 195.00 C 57.00 195.00 55.42 195.00 53.50 195.00 C 51.58 195.00 49.33 194.32 48.50 193.50 C 47.67 192.68 46.10 191.78 45.00 191.50 C 43.67 191.17 43.33 190.67 44.00 190.00 C 44.55 189.45 45.90 188.78 49.00 188.00" vector-effect="non-scaling-stroke"/>
		<path stroke="#033084" d="M 319.00 190.00 L 319.00 190.00 C 319.00 190.00 319.68 190.00 320.50 190.00 C 321.76 190.00 322.00 192.17 322.00 203.50 C 322.00 211.83 322.38 217.00 323.00 217.00 C 323.55 217.00 324.00 216.78 324.00 216.00" vector-effect="non-scaling-stroke"/>
		<path stroke="#033084" d="M 324.00 216.00 L 324.00 216.00 C 324.00 216.00 324.23 216.00 324.50 216.00 C 324.77 216.00 325.45 215.55 327.00 214.00" vector-effect="non-scaling-stroke"/>
		<path stroke="#033084" d="M 337.00 210.00 L 337.00 210.00 C 337.00 210.00 339.48 210.45 342.50 211.00 C 345.52 211.55 349.35 212.90 351.00 214.00 C 352.65 215.10 354.23 216.90 355.00 220.00" vector-effect="non-scaling-stroke"/>
		<path stroke="#033084" d="M 324.00 231.00 L 324.00 231.00 C 324.00 231.00 323.55 233.03 323.00 235.50 C 322.45 237.97 322.00 246.07 322.00 267.00 L 301.00 267.00 L 301.00 228.50 C 301.00 207.32 301.23 190.00 301.50 190.00 C 301.77 190.00 305.82 190.00 319.00 190.00" vector-effect="non-scaling-stroke"/>
		<path stroke="#7FBD4C" d="M 236.00 195.00 L 257.00 195.00 L 257.00 206.00 L 246.50 206.00 C 240.72 206.00 236.00 205.78 236.00 205.50 C 236.00 205.22 236.00 202.75 236.00 195.00" vector-effect="non-scaling-stroke"/>
		<path stroke="#043084" d="M 264.00 195.00 L 285.00 195.00 L 285.00 212.00 L 294.00 212.00 L 294.00 227.00 L 285.00 227.00 L 285.00 239.50 C 285.00 249.50 285.30 252.20 286.50 253.00 C 287.32 253.55 289.35 253.78 294.00 253.00 L 294.00 267.00 L 289.00 268.00 C 286.25 268.55 282.65 269.00 281.00 269.00 C 279.35 269.00 275.75 268.10 273.00 267.00 C 269.67 265.67 267.67 264.17 267.00 262.50 C 266.45 261.12 265.55 258.88 265.00 257.50 C 264.41 256.03 264.00 242.67 264.00 195.00" vector-effect="non-scaling-stroke"/>
		<path stroke="#043083" d="M 130.00 215.00 L 130.00 215.00 C 130.00 215.00 130.22 216.35 131.00 221.00 L 120.50 221.00 C 114.17 221.00 110.00 220.60 110.00 220.00 C 110.00 219.45 109.10 218.10 108.00 217.00 C 106.59 215.59 104.67 215.00 101.50 215.00 C 98.00 215.00 96.78 215.44 96.00 217.00 C 95.45 218.10 95.00 219.45 95.00 220.00 C 95.00 220.55 96.35 221.68 98.00 222.50 C 99.65 223.32 102.35 224.22 104.00 224.50 C 105.65 224.78 109.47 225.68 112.50 226.50 C 115.53 227.32 119.12 228.22 120.50 228.50 C 121.88 228.78 124.80 230.80 127.00 233.00 C 129.76 235.76 131.31 238.39 132.00 241.50 C 132.67 244.50 132.67 247.83 132.00 251.50 C 131.33 255.17 130.00 258.17 128.00 260.50 C 126.35 262.43 122.53 265.12 119.50 266.50 C 114.65 268.70 112.63 269.00 102.50 269.00 C 93.17 269.00 90.15 268.62 86.50 267.00 C 84.03 265.90 80.65 263.88 79.00 262.50 C 77.35 261.12 75.10 258.20 74.00 256.00 C 72.90 253.80 72.00 250.88 72.00 247.00 L 94.00 247.00 L 96.00 250.00 C 97.52 252.27 98.97 253.12 102.00 253.50 C 104.20 253.78 106.90 253.55 108.00 253.00 C 109.10 252.45 110.22 251.10 110.50 250.00 C 110.80 248.80 110.20 247.20 109.00 246.00 C 107.78 244.78 104.08 243.42 99.50 242.50 C 95.38 241.68 89.53 239.88 86.50 238.50 C 83.47 237.12 79.65 234.65 75.00 230.00" vector-effect="non-scaling-stroke"/>
		<path stroke="#043083" d="M 74.00 216.00 L 74.00 216.00 C 74.00 216.00 74.22 215.10 74.50 214.00 C 74.78 212.90 76.12 210.65 77.50 209.00 C 78.88 207.35 81.35 205.32 83.00 204.50 C 84.65 203.68 88.25 202.32 91.00 201.50 C 93.75 200.68 98.70 200.00 102.00 200.00 C 105.30 200.00 109.58 200.45 115.00 202.00" vector-effect="non-scaling-stroke"/>
		<path stroke="#072F77" d="M 115.00 202.00 L 115.00 202.00 C 115.00 202.00 115.67 202.22 116.50 202.50 C 117.33 202.78 118.90 203.45 120.00 204.00 C 121.10 204.55 123.35 206.12 125.00 207.50 C 126.65 208.88 128.45 211.12 130.00 215.00" vector-effect="non-scaling-stroke"/>
		<path stroke="#072F77" d="M 130.00 215.00 L 130.00 215.00 C 130.00 215.00 127.97 213.88 125.50 212.50 C 123.03 211.12 119.88 210.00 118.50 210.00 C 116.17 210.00 116.10 209.87 117.50 208.00 C 118.86 206.19 118.81 205.81 115.00 202.00" vector-effect="non-scaling-stroke"/>
		<path stroke="#023190" d="M 104.00 206.50 C 104.00 205.57 104.94 205.00 106.50 205.00 C 108.17 205.00 109.17 205.67 109.50 207.00 C 109.94 208.78 109.72 208.89 107.50 208.00 C 106.12 207.45 104.78 207.22 104.50 207.50 C 104.22 207.78 104.00 207.32 104.00 206.50" vector-effect="non-scaling-stroke"/>
		<path stroke="#F6FCF9" d="M 183.00 212.00 L 183.00 212.00 C 183.00 212.00 184.57 211.78 186.50 211.50 C 188.43 211.22 190.45 211.00 191.00 211.00 C 191.55 211.00 192.00 210.32 192.00 209.50 C 192.00 208.68 192.90 207.55 194.00 207.00 C 195.10 206.45 197.12 206.00 198.50 206.00 C 199.88 206.00 202.12 206.90 206.00 210.00" vector-effect="non-scaling-stroke"/>
		<path stroke="#F1FAF7" d="M 337.00 210.00 L 337.00 210.00 C 337.00 210.00 335.43 210.45 333.50 211.00 C 331.57 211.55 329.32 212.45 327.00 214.00" vector-effect="non-scaling-stroke"/>
		<path stroke="#F1FAF7" d="M 327.00 214.00 L 327.00 214.00 C 327.00 214.00 327.68 212.65 328.50 211.00 C 329.57 208.87 330.72 208.00 332.50 208.00 C 333.88 208.00 335.45 208.45 337.00 210.00" vector-effect="non-scaling-stroke"/>
		<path stroke="#042F81" d="M 183.00 212.00 L 183.00 212.00 C 183.00 212.00 184.35 212.68 186.00 213.50 C 187.65 214.32 189.45 215.90 191.00 219.00" vector-effect="non-scaling-stroke"/>
		<path stroke="#042F81" d="M 159.00 233.00 L 159.00 233.00 C 159.00 233.00 158.78 240.65 158.00 267.00 L 147.50 267.00 C 141.72 267.00 137.00 266.77 137.00 266.50 C 137.00 266.23 137.00 257.00 137.00 226.00" vector-effect="non-scaling-stroke"/>
		<path stroke="#042F81" d="M 137.00 213.00 L 137.00 213.00 C 137.00 213.00 141.72 212.78 147.50 212.50 C 153.28 212.22 158.00 212.22 158.00 212.50 C 158.00 212.78 158.00 213.68 158.00 216.00" vector-effect="non-scaling-stroke"/>
		<path stroke="#042F81" d="M 160.00 217.00 L 160.00 217.00 C 160.00 217.00 161.12 215.88 162.50 214.50 C 164.13 212.87 166.91 211.65 170.50 211.00 C 174.17 210.33 177.17 210.33 183.00 212.00" vector-effect="non-scaling-stroke"/>
		<path stroke="#033084" d="M 206.00 210.00 L 206.00 210.00 C 206.00 210.00 207.57 210.00 209.50 210.00 C 211.43 210.00 215.03 210.68 217.50 211.50 C 219.97 212.32 223.12 214.35 224.50 216.00 C 225.88 217.65 227.45 220.35 228.00 222.00 C 228.55 223.65 229.00 234.45 229.00 267.00 L 208.00 267.00 L 207.50 249.00 C 207.12 235.15 206.65 230.54 205.50 229.00 C 204.58 227.78 202.83 227.00 201.00 227.00 C 199.00 227.00 197.33 227.83 196.00 229.50 C 194.17 231.79 194.00 233.50 194.00 267.00 L 173.00 267.00 L 172.50 249.00 C 172.05 232.71 171.81 230.81 170.00 229.00 C 168.90 227.90 166.88 227.00 165.50 227.00 C 163.83 227.00 162.33 228.00 159.00 233.00" vector-effect="non-scaling-stroke"/>
		<path stroke="#033084" d="M 159.00 233.00 L 159.00 233.00 C 159.00 233.00 157.88 233.22 156.50 233.50 C 154.28 233.94 154.00 233.67 154.00 231.00 C 154.00 229.35 154.45 227.78 155.00 227.50 C 155.55 227.22 155.78 226.55 155.50 226.00 C 155.22 225.45 154.78 224.32 154.50 223.50 C 154.17 222.50 154.50 222.17 155.50 222.50 C 156.32 222.78 157.00 222.55 157.00 222.00 C 157.00 221.45 158.12 221.22 159.50 221.50 C 160.88 221.78 163.12 221.32 167.00 219.00" vector-effect="non-scaling-stroke"/>
		<path stroke="#033084" d="M 174.00 218.00 L 174.00 218.00 C 174.00 218.00 174.90 218.00 176.00 218.00 C 177.10 218.00 178.45 217.55 179.00 217.00 C 179.67 216.33 181.17 216.50 183.50 217.50 C 185.43 218.32 187.90 219.00 191.00 219.00" vector-effect="non-scaling-stroke"/>
		<path stroke="#033084" d="M 191.00 219.00 L 191.00 219.00 C 191.00 219.00 192.35 217.65 194.00 216.00 C 195.65 214.35 199.03 212.32 206.00 210.00" vector-effect="non-scaling-stroke"/>
		<path stroke="#033083" d="M 236.00 212.00 L 257.00 212.00 L 257.00 267.00 L 246.50 267.00 C 240.72 267.00 236.00 266.77 236.00 266.50 C 236.00 266.23 236.00 253.85 236.00 212.00" vector-effect="non-scaling-stroke"/>
		<path stroke="#0A306D" d="M 137.00 213.00 L 137.00 213.00 C 137.00 213.00 138.12 214.80 142.00 221.00 L 140.00 223.50 C 138.90 224.88 137.78 226.00 137.00 226.00" vector-effect="non-scaling-stroke"/>
		<path stroke="#0A306D" d="M 137.00 226.00 L 137.00 226.00 C 137.00 226.00 137.00 225.78 137.00 225.50 C 137.00 225.22 137.00 222.30 137.00 213.00" vector-effect="non-scaling-stroke"/>
		<path stroke="#052D8D" d="M 209.00 216.50 C 210.28 215.54 212.26 215.18 214.50 215.50 C 216.43 215.78 217.55 216.22 217.00 216.50 C 216.45 216.78 214.43 217.68 212.50 218.50 C 210.17 219.50 208.67 219.67 208.00 219.00 C 207.33 218.33 207.67 217.50 209.00 216.50" vector-effect="non-scaling-stroke"/>
		<path stroke="#F6FDF8" d="M 74.00 216.00 L 74.00 216.00 C 74.00 216.00 73.78 217.57 73.50 219.50 C 73.22 221.43 73.45 224.57 75.00 230.00" vector-effect="non-scaling-stroke"/>
		<path stroke="#F6FDF8" d="M 75.00 230.00 L 75.00 230.00 C 75.00 230.00 73.65 229.55 72.00 229.00 C 70.31 228.44 68.56 226.91 68.00 225.50 C 67.33 223.83 67.33 222.00 68.00 220.00 C 68.67 218.00 69.67 217.00 71.00 217.00 C 72.10 217.00 73.22 216.78 74.00 216.00" vector-effect="non-scaling-stroke"/>
		<path stroke="#022F86" d="M 146.00 217.00 C 146.00 216.45 146.90 216.00 148.00 216.00 C 149.71 216.00 149.93 216.50 149.50 219.50 C 149.22 221.43 149.00 224.80 149.00 227.00 C 149.00 230.33 148.67 231.00 147.00 231.00 C 145.33 231.00 145.00 230.33 145.00 227.00 C 145.00 224.11 144.58 223.00 143.50 223.00 C 142.30 223.00 142.40 222.50 144.00 220.50 C 145.10 219.12 146.00 217.55 146.00 217.00" vector-effect="non-scaling-stroke"/>
		<path stroke="#123697" d="M 158.00 216.00 L 158.00 216.00 C 158.00 216.00 158.22 216.45 158.50 217.00 C 158.78 217.55 159.22 217.78 160.00 217.00" vector-effect="non-scaling-stroke"/>
		<path stroke="#123697" d="M 160.00 217.00 L 160.00 217.00 C 160.00 217.00 159.55 217.68 159.00 218.50 C 158.45 219.32 157.78 220.00 157.00 220.00" vector-effect="non-scaling-stroke"/>
		<path stroke="#123697" d="M 156.00 221.00 L 156.00 221.00 C 156.00 221.00 155.32 220.32 154.50 219.50 C 153.68 218.68 153.22 217.55 153.50 217.00 C 153.78 216.45 154.90 216.00 158.00 216.00" vector-effect="non-scaling-stroke"/>
		<path stroke="#01327F" d="M 174.00 218.00 L 174.00 218.00 C 174.00 218.00 173.78 218.00 173.50 218.00 C 173.22 218.00 172.55 218.45 172.00 219.00 C 171.45 219.55 170.10 219.78 167.00 219.00" vector-effect="non-scaling-stroke"/>
		<path stroke="#01327F" d="M 167.00 219.00 L 167.00 219.00 C 167.00 219.00 167.00 218.32 167.00 217.50 C 167.00 216.50 168.00 216.00 170.00 216.00 C 171.65 216.00 173.22 216.45 174.00 218.00" vector-effect="non-scaling-stroke"/>
		<path stroke="#023475" d="M 330.00 221.00 L 330.00 221.00 C 330.00 221.00 329.55 221.00 329.00 221.00 C 328.45 221.00 328.00 220.32 328.00 219.50 C 328.00 218.67 328.89 218.00 330.00 218.00 C 331.10 218.00 332.00 218.45 332.00 220.00" vector-effect="non-scaling-stroke"/>
		<path stroke="#033084" d="M 157.00 220.00 L 157.00 220.00 C 157.00 220.00 157.00 220.22 157.00 220.50 C 157.00 220.78 156.78 221.00 156.00 221.00" vector-effect="non-scaling-stroke"/>
		<path stroke="#033084" d="M 156.00 221.00 L 156.00 221.00 C 156.00 221.00 156.00 220.78 156.00 220.50 C 156.00 220.22 156.22 220.00 157.00 220.00" vector-effect="non-scaling-stroke"/>
		<path stroke="#032F82" d="M 332.00 220.00 L 332.00 220.00 C 332.00 220.00 332.00 220.68 332.00 221.50 C 332.00 222.32 332.45 223.00 333.00 223.00 C 333.55 223.00 333.77 223.45 333.50 224.00 C 333.23 224.55 333.45 224.78 334.00 224.50 C 334.55 224.22 334.77 223.55 334.50 223.00 C 334.23 222.45 334.68 221.78 335.50 221.50 C 336.32 221.22 340.15 221.45 344.00 222.00 C 347.85 222.55 351.00 223.45 351.00 224.00 C 351.00 224.55 351.68 225.00 352.50 225.00 C 353.32 225.00 354.00 224.55 354.00 224.00 C 354.00 223.45 354.23 222.32 355.00 220.00" vector-effect="non-scaling-stroke"/>
		<path stroke="#032F82" d="M 355.00 220.00 L 355.00 220.00 C 355.00 220.00 355.45 220.45 356.00 221.00 C 356.58 221.58 357.21 231.55 358.00 267.00 L 337.00 267.00 L 337.00 250.50 C 337.00 237.83 336.65 233.30 335.50 231.00 C 334.68 229.35 333.32 227.78 332.50 227.50 C 331.68 227.22 330.32 227.00 329.50 227.00 C 328.68 227.00 327.10 227.90 324.00 231.00" vector-effect="non-scaling-stroke"/>
		<path stroke="#032F82" d="M 324.00 231.00 L 324.00 231.00 C 324.00 231.00 323.10 230.32 322.00 229.50 C 320.61 228.46 320.15 227.24 320.50 225.50 C 320.77 224.12 321.23 222.55 321.50 222.00 C 321.77 221.45 322.90 221.22 324.00 221.50 C 325.10 221.78 325.77 222.45 325.50 223.00 C 325.22 223.56 326.33 224.00 328.00 224.00 C 329.65 224.00 331.00 223.55 331.00 223.00 C 331.00 222.45 330.77 221.78 330.00 221.00" vector-effect="non-scaling-stroke"/>
		<path stroke="#032F82" d="M 330.00 221.00 L 330.00 221.00 C 330.00 221.00 330.23 221.00 330.50 221.00 C 330.77 221.00 331.23 220.78 332.00 220.00" vector-effect="non-scaling-stroke"/>
		<path stroke="#E6FAF0" d="M 100.50 247.00 C 100.83 246.33 101.17 246.33 101.50 247.00 C 101.78 247.55 102.22 248.45 102.50 249.00 C 102.78 249.55 102.10 250.00 101.00 250.00 C 99.90 250.00 99.22 249.55 99.50 249.00 C 99.78 248.45 100.22 247.55 100.50 247.00" vector-effect="non-scaling-stroke"/>
		<path stroke="#043087" d="M 88.00 251.50 C 88.00 251.22 88.67 251.00 89.50 251.00 C 90.50 251.00 90.67 251.33 90.00 252.00 C 89.45 252.55 89.00 253.90 89.00 255.00 C 89.00 256.10 88.55 256.77 88.00 256.50 C 87.45 256.23 86.10 256.45 85.00 257.00 C 83.29 257.86 83.36 257.57 85.50 255.00 C 86.88 253.35 88.00 251.78 88.00 251.50" vector-effect="non-scaling-stroke"/>
		<path stroke="#FEFDF4" d="M 200.00 268.00 L 200.00 268.00 C 200.00 268.00 200.00 267.32 200.00 266.50 C 200.00 265.68 200.00 264.55 200.00 264.00 C 200.00 263.45 200.45 263.00 201.00 263.00 C 201.58 263.00 201.79 264.67 201.50 267.00 C 201.22 269.20 200.78 271.23 200.00 272.00" vector-effect="non-scaling-stroke"/>
		<path stroke="#ECFDFA" d="M 200.00 268.00 L 200.00 268.00 C 200.00 268.00 200.00 268.23 200.00 268.50 C 200.00 268.77 200.00 269.68 200.00 272.00" vector-effect="non-scaling-stroke"/>
		<path stroke="#ECFDFA" d="M 200.00 272.00 L 200.00 272.00 C 200.00 272.00 199.32 271.55 198.50 271.00 C 197.17 270.11 197.17 269.89 200.00 268.00" vector-effect="non-scaling-stroke"/>
	</g>
	<path fill="#FEFEFE" d="M 0.00 0.00 C 309.23 0.00 399.23 0.00 399.50 0.00 C 399.77 0.00 400.00 90.00 400.00 200.00 L 400.00 400.00 L 0.00 400.00 L 0.00 0.00 Z M 49.00 188.00 C 45.90 188.78 44.55 189.45 44.00 190.00 C 43.33 190.67 43.67 191.17 45.00 191.50 C 46.10 191.78 47.67 192.68 48.50 193.50 C 49.33 194.32 51.58 195.00 53.50 195.00 C 55.42 195.00 57.00 195.00 57.00 195.00 L 57.00 195.00 C 67.74 198.58 70.68 198.89 77.00 198.50 C 81.85 198.20 86.77 197.21 89.50 196.00 C 91.97 194.90 95.35 192.65 97.00 191.00 C 98.65 189.35 100.90 186.20 102.00 184.00 C 103.10 181.80 104.22 178.20 104.50 176.00 L 105.00 172.00 C 85.67 172.00 85.00 172.13 85.00 174.00 C 85.00 175.10 83.42 177.57 81.50 179.50 C 79.06 181.94 77.10 183.00 75.00 183.00 C 73.35 183.00 70.65 182.10 69.00 181.00 C 67.35 179.90 65.33 177.65 64.50 176.00 C 63.67 174.35 62.77 170.07 62.50 166.50 C 62.23 162.93 62.45 158.65 63.00 157.00 C 63.55 155.35 64.00 154.00 64.00 154.00 L 64.00 154.00 L 67.00 150.00 C 67.78 153.10 68.67 154.00 69.50 154.00 C 70.50 154.00 70.83 154.67 70.50 156.00 C 70.08 157.68 70.39 157.92 72.50 157.50 C 73.88 157.22 75.22 156.55 75.50 156.00 C 75.81 155.38 76.96 155.58 78.50 156.50 C 80.61 157.77 82.85 157.85 93.00 157.00 C 99.60 156.45 105.00 156.00 105.00 156.00 L 105.00 156.00 C 104.22 150.57 103.10 147.20 102.00 145.00 C 100.90 142.80 100.00 141.00 100.00 141.00 L 100.00 141.00 C 96.90 137.12 93.53 134.88 90.50 133.50 C 85.81 131.37 83.53 131.00 75.00 131.00 C 65.89 131.00 64.47 131.27 59.00 134.00 C 55.70 135.65 51.88 138.35 50.50 140.00 C 49.12 141.65 46.88 145.25 45.50 148.00 C 43.27 152.46 43.00 154.23 43.00 164.50 C 43.00 175.28 43.19 176.38 46.00 182.00 C 47.65 185.30 49.00 188.00 49.00 188.00 L 49.00 188.00 Z M 182.00 198.00 C 194.40 198.00 198.22 198.00 198.50 198.00 C 198.78 198.00 199.00 188.55 199.00 177.00 C 199.00 156.33 199.02 156.10 200.50 162.00 C 201.32 165.30 202.22 169.35 202.50 171.00 C 202.78 172.65 203.45 175.80 204.00 178.00 C 204.55 180.20 205.45 184.25 206.00 187.00 C 206.55 189.75 207.22 193.35 207.50 195.00 L 208.00 198.00 C 224.94 197.06 226.06 196.77 226.50 195.00 C 226.78 193.90 228.12 188.28 229.50 182.50 C 230.88 176.72 232.45 169.75 233.00 167.00 C 233.55 164.25 234.45 160.65 235.00 159.00 C 235.75 156.76 236.00 160.17 236.00 172.50 L 236.00 189.00 L 257.00 189.00 C 257.00 147.93 257.00 136.00 257.00 136.00 L 257.00 136.00 C 257.00 133.68 257.00 132.78 257.00 132.50 C 257.00 132.22 250.25 132.00 242.00 132.00 C 227.83 132.00 226.97 132.11 226.50 134.00 C 226.22 135.10 226.00 136.00 226.00 136.00 L 226.00 136.00 C 225.22 139.10 224.78 141.12 224.50 142.50 C 224.22 143.88 222.43 150.62 220.50 157.50 C 218.57 164.38 217.00 170.00 217.00 170.00 L 217.00 170.00 C 215.45 162.25 214.55 157.97 214.00 155.50 C 213.45 153.03 213.00 151.00 213.00 151.00 L 213.00 151.00 C 209.90 139.38 208.78 135.10 208.50 134.00 C 208.06 132.24 207.17 132.00 201.00 132.00 C 197.15 132.00 194.00 132.00 194.00 132.00 L 194.00 132.00 C 182.38 131.22 178.78 131.22 178.50 131.50 C 178.22 131.78 178.00 146.62 178.00 164.50 C 178.00 196.17 178.05 197.01 180.00 197.50 C 181.10 197.78 182.00 198.00 182.00 198.00 L 182.00 198.00 Z M 111.00 132.00 C 111.00 182.38 111.00 197.22 111.00 197.50 C 111.00 197.78 118.65 198.00 128.00 198.00 C 140.00 198.00 146.62 197.56 150.50 196.50 C 153.53 195.68 158.03 193.88 160.50 192.50 C 163.09 191.06 166.27 188.09 168.00 185.50 C 169.65 183.03 171.45 179.43 172.00 177.50 C 172.55 175.57 173.00 169.50 173.00 164.00 C 173.00 157.33 172.50 152.83 171.50 150.50 C 170.68 148.57 169.55 146.10 169.00 145.00 C 168.45 143.90 166.88 141.65 165.50 140.00 C 164.12 138.35 161.43 136.32 159.50 135.50 C 157.57 134.68 154.88 133.55 153.50 133.00 C 152.12 132.45 142.00 132.00 131.00 132.00 L 111.00 132.00 Z M 100.50 135.50 C 100.22 135.78 100.00 136.68 100.00 137.50 C 100.00 138.32 100.90 139.22 102.00 139.50 C 103.50 139.88 104.00 139.50 104.00 138.00 C 104.00 136.90 103.33 135.78 102.50 135.50 C 101.67 135.22 100.78 135.22 100.50 135.50 Z M 319.00 190.00 C 305.82 190.00 301.77 190.00 301.50 190.00 C 301.23 190.00 301.00 207.32 301.00 228.50 L 301.00 267.00 L 322.00 267.00 C 322.00 246.07 322.45 237.97 323.00 235.50 C 323.55 233.03 324.00 231.00 324.00 231.00 L 324.00 231.00 C 327.10 227.90 328.68 227.00 329.50 227.00 C 330.32 227.00 331.68 227.22 332.50 227.50 C 333.32 227.78 334.68 229.35 335.50 231.00 C 336.65 233.30 337.00 237.83 337.00 250.50 L 337.00 267.00 L 358.00 267.00 C 357.21 231.55 356.58 221.58 356.00 221.00 C 355.45 220.45 355.00 220.00 355.00 220.00 L 355.00 220.00 C 354.23 216.90 352.65 215.10 351.00 214.00 C 349.35 212.90 345.52 211.55 342.50 211.00 C 339.48 210.45 337.00 210.00 337.00 210.00 L 337.00 210.00 C 335.45 208.45 333.88 208.00 332.50 208.00 C 330.72 208.00 329.57 208.87 328.50 211.00 C 327.68 212.65 327.00 214.00 327.00 214.00 L 327.00 214.00 C 325.45 215.55 324.77 216.00 324.50 216.00 C 324.23 216.00 324.00 216.00 324.00 216.00 L 324.00 216.00 C 323.23 216.00 323.00 210.38 323.00 203.50 C 323.00 191.50 323.08 191.02 325.00 191.50 C 326.14 191.79 326.79 191.57 326.50 191.00 C 326.23 190.45 326.45 189.78 327.00 189.50 C 327.55 189.22 328.00 188.10 328.00 187.00 C 328.00 185.67 327.00 184.67 325.00 184.00 C 322.67 183.22 321.67 183.33 320.50 184.50 C 319.68 185.32 319.00 186.90 319.00 188.00 C 319.00 189.10 319.00 190.00 319.00 190.00 L 319.00 190.00 Z M 236.00 195.00 C 236.00 202.75 236.00 205.22 236.00 205.50 C 236.00 205.78 240.72 206.00 246.50 206.00 L 257.00 206.00 L 257.00 195.00 L 236.00 195.00 Z M 264.00 195.00 C 264.00 242.67 264.41 256.03 265.00 257.50 C 265.55 258.88 266.45 261.12 267.00 262.50 C 267.67 264.17 269.67 265.67 273.00 267.00 C 275.75 268.10 279.35 269.00 281.00 269.00 C 282.65 269.00 286.25 268.55 289.00 268.00 L 294.00 267.00 L 294.00 253.00 C 289.35 253.78 287.32 253.55 286.50 253.00 C 285.30 252.20 285.00 249.50 285.00 239.50 L 285.00 227.00 L 294.00 227.00 L 294.00 212.00 L 285.00 212.00 L 285.00 195.00 L 264.00 195.00 Z M 74.00 216.00 C 73.22 216.78 72.10 217.00 71.00 217.00 C 69.67 217.00 68.67 218.00 68.00 220.00 C 67.33 222.00 67.33 223.83 68.00 225.50 C 68.56 226.91 70.31 228.44 72.00 229.00 C 73.65 229.55 75.00 230.00 75.00 230.00 L 75.00 230.00 C 79.65 234.65 83.47 237.12 86.50 238.50 C 89.53 239.88 95.38 241.68 99.50 242.50 C 104.08 243.42 107.78 244.78 109.00 246.00 C 110.20 247.20 110.80 248.80 110.50 250.00 C 110.22 251.10 109.10 252.45 108.00 253.00 C 106.90 253.55 104.20 253.78 102.00 253.50 C 98.97 253.12 97.52 252.27 96.00 250.00 L 94.00 247.00 L 72.00 247.00 C 72.00 250.88 72.90 253.80 74.00 256.00 C 75.10 258.20 77.35 261.12 79.00 262.50 C 80.65 263.88 84.03 265.90 86.50 267.00 C 90.15 268.62 93.17 269.00 102.50 269.00 C 112.63 269.00 114.65 268.70 119.50 266.50 C 122.53 265.12 126.35 262.43 128.00 260.50 C 130.00 258.17 131.33 255.17 132.00 251.50 C 132.67 247.83 132.67 244.50 132.00 241.50 C 131.31 238.39 129.76 235.76 127.00 233.00 C 124.80 230.80 121.88 228.78 120.50 228.50 C 119.12 228.22 115.53 227.32 112.50 226.50 C 109.47 225.68 105.65 224.78 104.00 224.50 C 102.35 224.22 99.65 223.32 98.00 222.50 C 96.35 221.68 95.00 220.55 95.00 220.00 C 95.00 219.45 95.45 218.10 96.00 217.00 C 96.78 215.44 98.00 215.00 101.50 215.00 C 104.67 215.00 106.59 215.59 108.00 217.00 C 109.10 218.10 110.00 219.45 110.00 220.00 C 110.00 220.60 114.17 221.00 120.50 221.00 L 131.00 221.00 C 130.22 216.35 130.00 215.00 130.00 215.00 L 130.00 215.00 C 128.45 211.12 126.65 208.88 125.00 207.50 C 123.35 206.12 121.10 204.55 120.00 204.00 C 118.90 203.45 117.33 202.78 116.50 202.50 C 115.67 202.22 115.00 202.00 115.00 202.00 L 115.00 202.00 C 109.58 200.45 105.30 200.00 102.00 200.00 C 98.70 200.00 93.75 200.68 91.00 201.50 C 88.25 202.32 84.65 203.68 83.00 204.50 C 81.35 205.32 78.88 207.35 77.50 209.00 C 76.12 210.65 74.78 212.90 74.50 214.00 C 74.22 215.10 74.00 216.00 74.00 216.00 L 74.00 216.00 Z M 183.00 212.00 C 177.17 210.33 174.17 210.33 170.50 211.00 C 166.91 211.65 164.13 212.87 162.50 214.50 C 161.12 215.88 160.00 217.00 160.00 217.00 L 160.00 217.00 C 159.22 217.78 158.78 217.55 158.50 217.00 C 158.22 216.45 158.00 216.00 158.00 216.00 L 158.00 216.00 C 158.00 213.68 158.00 212.78 158.00 212.50 C 158.00 212.22 153.28 212.22 147.50 212.50 C 141.72 212.78 137.00 213.00 137.00 213.00 L 137.00 213.00 C 137.00 222.30 137.00 225.22 137.00 225.50 C 137.00 225.78 137.00 226.00 137.00 226.00 L 137.00 226.00 C 137.00 257.00 137.00 266.23 137.00 266.50 C 137.00 266.77 141.72 267.00 147.50 267.00 L 158.00 267.00 C 158.78 240.65 159.00 233.00 159.00 233.00 L 159.00 233.00 C 162.33 228.00 163.83 227.00 165.50 227.00 C 166.88 227.00 168.90 227.90 170.00 229.00 C 171.81 230.81 172.05 232.71 172.50 249.00 L 173.00 267.00 L 194.00 267.00 C 194.00 233.50 194.17 231.79 196.00 229.50 C 197.33 227.83 199.00 227.00 201.00 227.00 C 202.83 227.00 204.58 227.78 205.50 229.00 C 206.65 230.54 207.12 235.15 207.50 249.00 L 208.00 267.00 L 229.00 267.00 C 229.00 234.45 228.55 223.65 228.00 222.00 C 227.45 220.35 225.88 217.65 224.50 216.00 C 223.12 214.35 219.97 212.32 217.50 211.50 C 215.03 210.68 211.43 210.00 209.50 210.00 C 207.57 210.00 206.00 210.00 206.00 210.00 L 206.00 210.00 C 202.12 206.90 199.88 206.00 198.50 206.00 C 197.12 206.00 195.10 206.45 194.00 207.00 C 192.90 207.55 192.00 208.68 192.00 209.50 C 192.00 210.32 191.55 211.00 191.00 211.00 C 190.45 211.00 188.43 211.22 186.50 211.50 C 184.57 211.78 183.00 212.00 183.00 212.00 L 183.00 212.00 Z M 236.00 212.00 C 236.00 253.85 236.00 266.23 236.00 266.50 C 236.00 266.77 240.72 267.00 246.50 267.00 L 257.00 267.00 L 257.00 212.00 L 236.00 212.00 Z M 100.50 247.00 C 100.22 247.55 99.78 248.45 99.50 249.00 C 99.22 249.55 99.90 250.00 101.00 250.00 C 102.10 250.00 102.78 249.55 102.50 249.00 C 102.22 248.45 101.78 247.55 101.50 247.00 C 101.17 246.33 100.83 246.33 100.50 247.00 Z M 200.00 268.00 C 197.17 269.89 197.17 270.11 198.50 271.00 C 199.32 271.55 200.00 272.00 200.00 272.00 L 200.00 272.00 C 200.78 271.23 201.22 269.20 201.50 267.00 C 201.79 264.67 201.58 263.00 201.00 263.00 C 200.45 263.00 200.00 263.45 200.00 264.00 C 200.00 264.55 200.00 265.68 200.00 266.50 C 200.00 267.32 200.00 268.00 200.00 268.00 L 200.00 268.00 Z" fill-rule="evenodd"/>
	<path fill="#043083" d="M 100.00 141.00 C 95.35 141.78 93.78 142.45 93.50 143.00 C 93.22 143.55 92.33 144.00 91.50 144.00 C 90.67 144.00 89.55 144.68 89.00 145.50 C 88.45 146.32 88.22 147.00 88.50 147.00 C 88.78 147.00 90.58 146.55 92.50 146.00 C 95.24 145.22 96.44 145.33 98.00 146.50 C 99.10 147.32 100.00 148.90 100.00 150.00 C 100.00 151.10 99.33 152.90 98.50 154.00 C 97.67 155.10 97.00 156.00 97.00 156.00 L 97.00 156.00 C 88.47 156.00 85.78 155.78 85.50 155.50 C 85.22 155.22 84.33 153.88 83.50 152.50 C 82.67 151.12 80.42 149.10 78.50 148.00 C 76.43 146.81 73.98 146.20 72.50 146.50 C 71.12 146.78 68.65 148.57 67.00 150.50 C 65.35 152.43 64.00 154.00 64.00 154.00 L 64.00 154.00 L 64.00 154.00 C 64.00 154.00 63.55 155.35 63.00 157.00 C 62.45 158.65 62.23 162.93 62.50 166.50 C 62.77 170.07 63.67 174.35 64.50 176.00 C 65.33 177.65 67.35 179.90 69.00 181.00 C 70.65 182.10 73.35 183.00 75.00 183.00 C 77.10 183.00 79.06 181.94 81.50 179.50 C 83.42 177.57 85.00 175.10 85.00 174.00 C 85.00 172.13 85.67 172.00 105.00 172.00 L 104.50 176.00 C 104.22 178.20 103.10 181.80 102.00 184.00 C 100.90 186.20 98.65 189.35 97.00 191.00 C 95.35 192.65 91.97 194.90 89.50 196.00 C 86.77 197.21 81.85 198.20 77.00 198.50 C 70.68 198.89 67.74 198.58 57.00 195.00 C 55.45 193.45 53.65 191.88 52.00 190.50 C 50.35 189.12 49.00 188.00 49.00 188.00 L 49.00 188.00 L 49.00 188.00 C 49.00 188.00 47.65 185.30 46.00 182.00 C 43.19 176.38 43.00 175.28 43.00 164.50 C 43.00 154.23 43.27 152.46 45.50 148.00 C 46.88 145.25 49.12 141.65 50.50 140.00 C 51.88 138.35 55.70 135.65 59.00 134.00 C 64.47 131.27 65.89 131.00 75.00 131.00 C 83.53 131.00 85.81 131.37 90.50 133.50 C 93.53 134.88 96.90 137.12 100.00 141.00 Z M 72.50 188.00 C 71.12 189.10 70.00 190.22 70.00 190.50 C 70.00 190.78 70.90 190.55 72.00 190.00 C 73.48 189.26 74.39 189.39 75.50 190.50 C 76.33 191.32 76.78 192.22 76.50 192.50 C 76.22 192.78 77.35 193.00 79.00 193.00 C 80.65 193.00 82.67 192.32 83.50 191.50 C 84.83 190.17 84.72 189.78 82.50 188.00 C 81.12 186.90 78.88 186.00 77.50 186.00 C 76.12 186.00 73.88 186.90 72.50 188.00 Z" fill-rule="evenodd"/>
	<path fill="#033083" d="M 194.00 132.00 C 193.22 132.78 192.55 133.68 192.00 134.50 C 191.45 135.32 191.00 136.00 191.00 136.00 L 191.00 136.00 C 188.68 136.00 187.78 136.00 187.50 136.00 C 187.22 136.00 187.00 136.00 187.00 136.00 L 187.00 136.00 C 183.90 136.00 182.78 136.00 182.50 136.00 C 182.22 136.00 182.00 136.90 182.00 138.00 C 182.00 139.11 182.67 140.00 183.50 140.00 C 184.32 140.00 185.00 140.00 185.00 140.00 L 185.00 140.00 C 185.00 142.32 185.45 143.00 186.00 143.00 C 186.64 143.00 187.00 151.67 187.00 167.00 C 187.00 180.20 186.78 191.68 186.50 192.50 C 186.22 193.32 186.00 194.00 186.00 194.00 L 186.00 194.00 C 182.90 196.32 182.00 197.22 182.00 197.50 C 182.00 197.78 182.00 198.00 182.00 198.00 L 182.00 198.00 L 182.00 198.00 C 182.00 198.00 181.10 197.78 180.00 197.50 C 178.05 197.01 178.00 196.17 178.00 164.50 C 178.00 146.62 178.22 131.78 178.50 131.50 C 178.78 131.22 182.38 131.22 194.00 132.00 Z" fill-rule="evenodd"/>
	<path fill="#032F84" d="M 111.00 132.00 L 131.00 132.00 C 142.00 132.00 152.12 132.45 153.50 133.00 C 154.88 133.55 157.57 134.68 159.50 135.50 C 161.43 136.32 164.12 138.35 165.50 140.00 C 166.88 141.65 168.45 143.90 169.00 145.00 C 169.55 146.10 170.68 148.57 171.50 150.50 C 172.50 152.83 173.00 157.33 173.00 164.00 C 173.00 169.50 172.55 175.57 172.00 177.50 C 171.45 179.43 169.65 183.03 168.00 185.50 C 166.27 188.09 163.09 191.06 160.50 192.50 C 158.03 193.88 153.53 195.68 150.50 196.50 C 146.62 197.56 140.00 198.00 128.00 198.00 C 118.65 198.00 111.00 197.78 111.00 197.50 C 111.00 197.22 111.00 182.38 111.00 132.00 Z M 131.00 148.00 C 131.00 172.03 131.00 179.22 131.00 179.50 C 131.00 179.78 134.38 180.00 138.50 180.00 C 144.67 180.00 146.36 179.64 148.00 178.00 C 149.10 176.90 150.68 174.65 151.50 173.00 C 152.33 171.33 153.00 167.33 153.00 164.00 C 153.00 159.67 152.44 157.17 151.00 155.00 C 149.90 153.35 147.65 151.32 146.00 150.50 C 144.35 149.68 140.30 148.78 137.00 148.50 L 131.00 148.00 Z" fill-rule="evenodd"/>
	<path fill="#033084" d="M 194.00 132.00 L 194.00 132.00 C 194.00 132.00 197.15 132.00 201.00 132.00 C 207.17 132.00 208.06 132.24 208.50 134.00 C 208.78 135.10 209.90 139.38 213.00 151.00 C 209.74 153.45 209.18 154.74 209.50 156.00 C 209.78 157.10 209.55 158.22 209.00 158.50 C 208.45 158.78 208.00 159.00 208.00 159.00 L 208.00 159.00 C 205.30 160.80 205.20 161.70 206.00 164.50 C 206.55 166.43 207.22 168.00 207.50 168.00 C 207.78 168.00 208.00 168.00 208.00 168.00 L 208.00 168.00 C 211.10 168.78 213.12 169.22 214.50 169.50 C 215.88 169.78 217.00 170.00 217.00 170.00 L 217.00 170.00 L 217.00 170.00 C 217.00 170.00 218.57 164.38 220.50 157.50 C 222.43 150.62 224.22 143.88 224.50 142.50 C 224.78 141.12 225.22 139.10 226.00 136.00 C 226.78 135.22 227.90 135.00 229.00 135.00 C 230.47 135.00 231.00 135.67 231.00 137.50 C 231.00 139.37 231.63 140.13 233.50 140.50 C 234.88 140.78 236.00 141.00 236.00 141.00 L 236.00 141.00 C 236.00 141.78 236.90 141.78 238.00 141.50 C 239.10 141.22 240.00 141.00 240.00 141.00 L 240.00 141.00 C 251.07 141.00 252.39 140.61 254.50 138.50 C 255.88 137.12 257.00 136.00 257.00 136.00 L 257.00 136.00 L 257.00 136.00 C 257.00 136.00 257.00 147.93 257.00 189.00 L 236.00 189.00 L 236.00 172.50 C 236.00 160.17 235.75 156.76 235.00 159.00 C 234.45 160.65 233.55 164.25 233.00 167.00 C 232.45 169.75 230.88 176.72 229.50 182.50 C 228.12 188.28 226.78 193.90 226.50 195.00 C 226.06 196.77 224.94 197.06 208.00 198.00 L 207.50 195.00 C 207.22 193.35 206.55 189.75 206.00 187.00 C 205.45 184.25 204.55 180.20 204.00 178.00 C 203.45 175.80 202.78 172.65 202.50 171.00 C 202.22 169.35 201.32 165.30 200.50 162.00 C 199.02 156.10 199.00 156.33 199.00 177.00 C 199.00 188.55 198.78 198.00 198.50 198.00 C 198.22 198.00 194.40 198.00 182.00 198.00 L 182.00 198.00 C 182.00 198.00 182.00 197.78 182.00 197.50 C 182.00 197.22 182.90 196.32 186.00 194.00 C 187.61 192.39 188.00 182.67 188.00 168.00 C 188.00 153.33 188.39 143.61 189.00 143.00 C 189.67 142.33 189.67 142.00 189.00 142.00 C 188.45 142.00 188.00 141.55 188.00 141.00 C 188.00 140.45 188.90 139.78 190.00 139.50 C 191.23 139.19 191.81 138.42 191.50 137.50 C 191.22 136.68 191.00 136.00 191.00 136.00 L 191.00 136.00 L 191.00 136.00 C 191.00 136.00 191.45 135.32 192.00 134.50 C 192.55 133.68 193.22 132.78 194.00 132.00 Z M 231.50 142.50 C 231.22 142.78 231.22 143.45 231.50 144.00 C 231.78 144.55 232.90 145.00 234.00 145.00 C 235.11 145.00 236.00 144.33 236.00 143.50 C 236.00 142.67 235.11 142.00 234.00 142.00 C 232.90 142.00 231.78 142.22 231.50 142.50 Z" fill-rule="evenodd"/>
	<path fill="#032F83" d="M 257.00 136.00 L 257.00 136.00 C 257.00 136.00 255.88 137.12 254.50 138.50 C 252.39 140.61 251.07 141.00 240.00 141.00 C 240.00 140.22 239.10 140.22 238.00 140.50 C 236.90 140.78 236.00 141.00 236.00 141.00 L 236.00 141.00 L 236.00 141.00 C 236.00 141.00 234.88 140.78 233.50 140.50 C 231.63 140.13 231.00 139.37 231.00 137.50 C 231.00 135.67 230.47 135.00 229.00 135.00 C 227.90 135.00 226.78 135.22 226.00 136.00 L 226.00 136.00 C 226.00 136.00 226.22 135.10 226.50 134.00 C 226.97 132.11 227.83 132.00 242.00 132.00 C 250.25 132.00 257.00 132.22 257.00 132.50 C 257.00 132.78 257.00 133.68 257.00 136.00 Z" fill-rule="evenodd"/>
	<path fill="#FAFDED" d="M 100.50 135.50 C 100.78 135.22 101.67 135.22 102.50 135.50 C 103.33 135.78 104.00 136.90 104.00 138.00 C 104.00 139.50 103.50 139.88 102.00 139.50 C 100.90 139.22 100.00 138.32 100.00 137.50 C 100.00 136.68 100.22 135.78 100.50 135.50 Z" fill-rule="evenodd"/>
	<path fill="#012F93" d="M 187.00 136.00 C 187.00 137.55 186.55 138.45 186.00 139.00 C 185.45 139.55 185.00 140.00 185.00 140.00 L 185.00 140.00 L 185.00 140.00 C 185.00 140.00 184.32 140.00 183.50 140.00 C 182.67 140.00 182.00 139.11 182.00 138.00 C 182.00 136.90 182.22 136.00 182.50 136.00 C 182.78 136.00 183.90 136.00 187.00 136.00 Z" fill-rule="evenodd"/>
	<path fill="#032F87" d="M 187.00 136.00 L 187.00 136.00 C 187.00 136.00 187.22 136.00 187.50 136.00 C 187.78 136.00 188.68 136.00 191.00 136.00 L 191.00 136.00 C 191.00 136.00 191.22 136.68 191.50 137.50 C 191.81 138.42 191.23 139.19 190.00 139.50 C 188.90 139.78 188.00 140.45 188.00 141.00 C 188.00 141.55 188.45 142.00 189.00 142.00 C 189.67 142.00 189.67 142.33 189.00 143.00 C 188.39 143.61 188.00 153.33 188.00 168.00 C 188.00 182.67 187.61 192.39 186.00 194.00 L 186.00 194.00 C 186.00 194.00 186.22 193.32 186.50 192.50 C 186.78 191.68 187.00 180.20 187.00 167.00 C 187.00 151.67 186.64 143.00 186.00 143.00 C 185.45 143.00 185.00 142.32 185.00 140.00 L 185.00 140.00 C 185.00 140.00 185.45 139.55 186.00 139.00 C 186.55 138.45 187.00 137.55 187.00 136.00 Z" fill-rule="evenodd"/>
	<path fill="#013279" d="M 240.00 141.00 L 240.00 141.00 C 240.00 141.00 239.10 141.22 238.00 141.50 C 236.90 141.78 236.00 141.78 236.00 141.00 L 236.00 141.00 C 236.00 141.00 236.90 140.78 238.00 140.50 C 239.10 140.22 240.00 140.22 240.00 141.00 Z" fill-rule="evenodd"/>
	<path fill="#072F82" d="M 100.00 141.00 L 100.00 141.00 C 100.00 141.00 100.90 142.80 102.00 145.00 C 103.10 147.20 104.22 150.57 105.00 156.00 C 99.58 156.00 97.78 156.00 97.50 156.00 C 97.22 156.00 97.00 156.00 97.00 156.00 L 97.00 156.00 L 97.00 156.00 C 97.00 156.00 97.67 155.10 98.50 154.00 C 99.33 152.90 100.00 151.10 100.00 150.00 C 100.00 148.90 99.10 147.32 98.00 146.50 C 96.44 145.33 95.24 145.22 92.50 146.00 C 90.58 146.55 88.78 147.00 88.50 147.00 C 88.22 147.00 88.45 146.32 89.00 145.50 C 89.55 144.68 90.67 144.00 91.50 144.00 C 92.33 144.00 93.22 143.55 93.50 143.00 C 93.78 142.45 95.35 141.78 100.00 141.00 Z" fill-rule="evenodd"/>
	<path fill="#002D94" d="M 231.50 142.50 C 231.78 142.22 232.90 142.00 234.00 142.00 C 235.11 142.00 236.00 142.67 236.00 143.50 C 236.00 144.33 235.11 145.00 234.00 145.00 C 232.90 145.00 231.78 144.55 231.50 144.00 C 231.22 143.45 231.22 142.78 231.50 142.50 Z" fill-rule="evenodd"/>
	<path fill="#F6FBF8" d="M 97.00 156.00 L 97.00 156.00 C 97.00 156.00 97.22 156.00 97.50 156.00 C 97.78 156.00 99.58 156.00 105.00 156.00 L 105.00 156.00 C 105.00 156.00 99.60 156.45 93.00 157.00 C 82.85 157.85 80.61 157.77 78.50 156.50 C 76.96 155.58 75.81 155.38 75.50 156.00 C 75.22 156.55 73.88 157.22 72.50 157.50 C 70.39 157.92 70.08 157.68 70.50 156.00 C 70.83 154.67 70.50 154.00 69.50 154.00 C 68.67 154.00 67.78 153.10 67.00 150.00 L 64.00 154.00 L 64.00 154.00 C 64.00 154.00 65.35 152.43 67.00 150.50 C 68.65 148.57 71.12 146.78 72.50 146.50 C 73.98 146.20 76.43 146.81 78.50 148.00 C 80.42 149.10 82.67 151.12 83.50 152.50 C 84.33 153.88 85.22 155.22 85.50 155.50 C 85.78 155.78 88.47 156.00 97.00 156.00 Z" fill-rule="evenodd"/>
	<path fill="#F8FDFC" d="M 131.00 148.00 L 137.00 148.50 C 140.30 148.78 144.35 149.68 146.00 150.50 C 147.65 151.32 149.90 153.35 151.00 155.00 C 152.44 157.17 153.00 159.67 153.00 164.00 C 153.00 167.33 152.33 171.33 151.50 173.00 C 150.68 174.65 149.10 176.90 148.00 178.00 C 146.36 179.64 144.67 180.00 138.50 180.00 C 134.38 180.00 131.00 179.78 131.00 179.50 C 131.00 179.22 131.00 172.03 131.00 148.00 Z M 146.00 158.00 C 146.78 158.78 147.00 158.78 147.00 158.50 C 147.00 158.22 147.00 158.00 147.00 158.00 L 147.00 158.00 C 145.05 153.13 144.87 153.08 142.50 154.50 C 141.12 155.32 140.00 156.45 140.00 157.00 C 140.00 157.55 140.68 158.22 141.50 158.50 C 142.32 158.78 143.22 158.55 143.50 158.00 C 143.78 157.45 144.45 157.22 145.00 157.50 C 145.55 157.78 146.00 158.00 146.00 158.00 L 146.00 158.00 Z" fill-rule="evenodd"/>
	<path fill="#052F81" d="M 213.00 151.00 L 213.00 151.00 C 213.00 151.00 213.45 153.03 214.00 155.50 C 214.55 157.97 215.45 162.25 217.00 170.00 L 217.00 170.00 C 217.00 170.00 215.88 169.78 214.50 169.50 C 213.12 169.22 211.10 168.78 208.00 168.00 C 209.55 164.90 210.00 163.10 210.00 162.00 C 210.00 160.90 209.55 159.78 209.00 159.50 C 208.45 159.22 208.00 159.00 208.00 159.00 L 208.00 159.00 L 208.00 159.00 C 208.00 159.00 208.45 158.78 209.00 158.50 C 209.55 158.22 209.78 157.10 209.50 156.00 C 209.18 154.74 209.74 153.45 213.00 151.00 Z" fill-rule="evenodd"/>
	<path fill="#FDFEF3" d="M 147.00 158.00 C 146.22 158.00 146.00 158.00 146.00 158.00 L 146.00 158.00 L 146.00 158.00 C 146.00 158.00 145.55 157.78 145.00 157.50 C 144.45 157.22 143.78 157.45 143.50 158.00 C 143.22 158.55 142.32 158.78 141.50 158.50 C 140.68 158.22 140.00 157.55 140.00 157.00 C 140.00 156.45 141.12 155.32 142.50 154.50 C 144.87 153.08 145.05 153.13 147.00 158.00 Z" fill-rule="evenodd"/>
	<path fill="#F4F4EA" d="M 146.00 158.00 L 146.00 158.00 C 146.00 158.00 146.22 158.00 147.00 158.00 L 147.00 158.00 C 147.00 158.00 147.00 158.22 147.00 158.50 C 147.00 158.78 146.78 158.78 146.00 158.00 Z" fill-rule="evenodd"/>
	<path fill="#022E8E" d="M 208.00 159.00 L 208.00 159.00 C 208.00 159.00 208.45 159.22 209.00 159.50 C 209.55 159.78 210.00 160.90 210.00 162.00 C 210.00 163.10 209.55 164.90 208.00 168.00 L 208.00 168.00 C 208.00 168.00 207.78 168.00 207.50 168.00 C 207.22 168.00 206.55 166.43 206.00 164.50 C 205.20 161.70 205.30 160.80 208.00 159.00 Z" fill-rule="evenodd"/>
	<path fill="#F6FBF5" d="M 324.00 216.00 C 324.00 216.78 323.55 217.00 323.00 217.00 C 322.38 217.00 322.00 211.83 322.00 203.50 C 322.00 192.17 321.76 190.00 320.50 190.00 C 319.68 190.00 319.00 190.00 319.00 190.00 L 319.00 190.00 L 319.00 190.00 C 319.00 190.00 319.00 189.10 319.00 188.00 C 319.00 186.90 319.68 185.32 320.50 184.50 C 321.67 183.33 322.67 183.22 325.00 184.00 C 327.00 184.67 328.00 185.67 328.00 187.00 C 328.00 188.10 327.55 189.22 327.00 189.50 C 326.45 189.78 326.23 190.45 326.50 191.00 C 326.79 191.57 326.14 191.79 325.00 191.50 C 323.08 191.02 323.00 191.50 323.00 203.50 C 323.00 210.38 323.23 216.00 324.00 216.00 Z" fill-rule="evenodd"/>
	<path fill="#023087" d="M 72.50 188.00 C 73.88 186.90 76.12 186.00 77.50 186.00 C 78.88 186.00 81.12 186.90 82.50 188.00 C 84.72 189.78 84.83 190.17 83.50 191.50 C 82.67 192.32 80.65 193.00 79.00 193.00 C 77.35 193.00 76.22 192.78 76.50 192.50 C 76.78 192.22 76.33 191.32 75.50 190.50 C 74.39 189.39 73.48 189.26 72.00 190.00 C 70.90 190.55 70.00 190.78 70.00 190.50 C 70.00 190.22 71.12 189.10 72.50 188.00 Z" fill-rule="evenodd"/>
	<path fill="#F7FDF7" d="M 49.00 188.00 L 49.00 188.00 C 49.00 188.00 50.35 189.12 52.00 190.50 C 53.65 191.88 55.45 193.45 57.00 195.00 L 57.00 195.00 C 57.00 195.00 55.42 195.00 53.50 195.00 C 51.58 195.00 49.33 194.32 48.50 193.50 C 47.67 192.68 46.10 191.78 45.00 191.50 C 43.67 191.17 43.33 190.67 44.00 190.00 C 44.55 189.45 45.90 188.78 49.00 188.00 Z" fill-rule="evenodd"/>
	<path fill="#033084" d="M 319.00 190.00 L 319.00 190.00 C 319.00 190.00 319.68 190.00 320.50 190.00 C 321.76 190.00 322.00 192.17 322.00 203.50 C 322.00 211.83 322.38 217.00 323.00 217.00 C 323.55 217.00 324.00 216.78 324.00 216.00 L 324.00 216.00 C 324.00 216.00 324.23 216.00 324.50 216.00 C 324.77 216.00 325.45 215.55 327.00 214.00 C 329.32 212.45 331.57 211.55 333.50 211.00 C 335.43 210.45 337.00 210.00 337.00 210.00 L 337.00 210.00 L 337.00 210.00 C 337.00 210.00 339.48 210.45 342.50 211.00 C 345.52 211.55 349.35 212.90 351.00 214.00 C 352.65 215.10 354.23 216.90 355.00 220.00 C 354.23 222.32 354.00 223.45 354.00 224.00 C 354.00 224.55 353.32 225.00 352.50 225.00 C 351.68 225.00 351.00 224.55 351.00 224.00 C 351.00 223.45 347.85 222.55 344.00 222.00 C 340.15 221.45 336.32 221.22 335.50 221.50 C 334.68 221.78 334.23 222.45 334.50 223.00 C 334.77 223.55 334.55 224.22 334.00 224.50 C 333.45 224.78 333.23 224.55 333.50 224.00 C 333.77 223.45 333.55 223.00 333.00 223.00 C 332.45 223.00 332.00 222.32 332.00 221.50 C 332.00 220.68 332.00 220.00 332.00 220.00 L 332.00 220.00 C 332.00 218.45 331.10 218.00 330.00 218.00 C 328.89 218.00 328.00 218.67 328.00 219.50 C 328.00 220.32 328.45 221.00 329.00 221.00 C 329.55 221.00 330.00 221.00 330.00 221.00 L 330.00 221.00 C 330.77 221.78 331.00 222.45 331.00 223.00 C 331.00 223.55 329.65 224.00 328.00 224.00 C 326.33 224.00 325.22 223.56 325.50 223.00 C 325.77 222.45 325.10 221.78 324.00 221.50 C 322.90 221.22 321.77 221.45 321.50 222.00 C 321.23 222.55 320.77 224.12 320.50 225.50 C 320.15 227.24 320.61 228.46 322.00 229.50 C 323.10 230.32 324.00 231.00 324.00 231.00 L 324.00 231.00 L 324.00 231.00 C 324.00 231.00 323.55 233.03 323.00 235.50 C 322.45 237.97 322.00 246.07 322.00 267.00 L 301.00 267.00 L 301.00 228.50 C 301.00 207.32 301.23 190.00 301.50 190.00 C 301.77 190.00 305.82 190.00 319.00 190.00 Z" fill-rule="evenodd"/>
	<path fill="#7FBD4C" d="M 236.00 195.00 L 257.00 195.00 L 257.00 206.00 L 246.50 206.00 C 240.72 206.00 236.00 205.78 236.00 205.50 C 236.00 205.22 236.00 202.75 236.00 195.00 Z" fill-rule="evenodd"/>
	<path fill="#043084" d="M 264.00 195.00 L 285.00 195.00 L 285.00 212.00 L 294.00 212.00 L 294.00 227.00 L 285.00 227.00 L 285.00 239.50 C 285.00 249.50 285.30 252.20 286.50 253.00 C 287.32 253.55 289.35 253.78 294.00 253.00 L 294.00 267.00 L 289.00 268.00 C 286.25 268.55 282.65 269.00 281.00 269.00 C 279.35 269.00 275.75 268.10 273.00 267.00 C 269.67 265.67 267.67 264.17 267.00 262.50 C 266.45 261.12 265.55 258.88 265.00 257.50 C 264.41 256.03 264.00 242.67 264.00 195.00 Z" fill-rule="evenodd"/>
	<path fill="#043083" d="M 115.00 202.00 C 118.81 205.81 118.86 206.19 117.50 208.00 C 116.10 209.87 116.17 210.00 118.50 210.00 C 119.88 210.00 123.03 211.12 125.50 212.50 C 127.97 213.88 130.00 215.00 130.00 215.00 L 130.00 215.00 L 130.00 215.00 C 130.00 215.00 130.22 216.35 131.00 221.00 L 120.50 221.00 C 114.17 221.00 110.00 220.60 110.00 220.00 C 110.00 219.45 109.10 218.10 108.00 217.00 C 106.59 215.59 104.67 215.00 101.50 215.00 C 98.00 215.00 96.78 215.44 96.00 217.00 C 95.45 218.10 95.00 219.45 95.00 220.00 C 95.00 220.55 96.35 221.68 98.00 222.50 C 99.65 223.32 102.35 224.22 104.00 224.50 C 105.65 224.78 109.47 225.68 112.50 226.50 C 115.53 227.32 119.12 228.22 120.50 228.50 C 121.88 228.78 124.80 230.80 127.00 233.00 C 129.76 235.76 131.31 238.39 132.00 241.50 C 132.67 244.50 132.67 247.83 132.00 251.50 C 131.33 255.17 130.00 258.17 128.00 260.50 C 126.35 262.43 122.53 265.12 119.50 266.50 C 114.65 268.70 112.63 269.00 102.50 269.00 C 93.17 269.00 90.15 268.62 86.50 267.00 C 84.03 265.90 80.65 263.88 79.00 262.50 C 77.35 261.12 75.10 258.20 74.00 256.00 C 72.90 253.80 72.00 250.88 72.00 247.00 L 94.00 247.00 L 96.00 250.00 C 97.52 252.27 98.97 253.12 102.00 253.50 C 104.20 253.78 106.90 253.55 108.00 253.00 C 109.10 252.45 110.22 251.10 110.50 250.00 C 110.80 248.80 110.20 247.20 109.00 246.00 C 107.78 244.78 104.08 243.42 99.50 242.50 C 95.38 241.68 89.53 239.88 86.50 238.50 C 83.47 237.12 79.65 234.65 75.00 230.00 C 73.45 224.57 73.22 221.43 73.50 219.50 C 73.78 217.57 74.00 216.00 74.00 216.00 L 74.00 216.00 L 74.00 216.00 C 74.00 216.00 74.22 215.10 74.50 214.00 C 74.78 212.90 76.12 210.65 77.50 209.00 C 78.88 207.35 81.35 205.32 83.00 204.50 C 84.65 203.68 88.25 202.32 91.00 201.50 C 93.75 200.68 98.70 200.00 102.00 200.00 C 105.30 200.00 109.58 200.45 115.00 202.00 Z M 104.00 206.50 C 104.00 207.32 104.22 207.78 104.50 207.50 C 104.78 207.22 106.12 207.45 107.50 208.00 C 109.72 208.89 109.94 208.78 109.50 207.00 C 109.17 205.67 108.17 205.00 106.50 205.00 C 104.94 205.00 104.00 205.57 104.00 206.50 Z M 88.00 251.50 C 88.00 251.78 86.88 253.35 85.50 255.00 C 83.36 257.57 83.29 257.86 85.00 257.00 C 86.10 256.45 87.45 256.23 88.00 256.50 C 88.55 256.77 89.00 256.10 89.00 255.00 C 89.00 253.90 89.45 252.55 90.00 252.00 C 90.67 251.33 90.50 251.00 89.50 251.00 C 88.67 251.00 88.00 251.22 88.00 251.50 Z" fill-rule="evenodd"/>
	<path fill="#072F77" d="M 115.00 202.00 L 115.00 202.00 C 115.00 202.00 115.67 202.22 116.50 202.50 C 117.33 202.78 118.90 203.45 120.00 204.00 C 121.10 204.55 123.35 206.12 125.00 207.50 C 126.65 208.88 128.45 211.12 130.00 215.00 L 130.00 215.00 C 130.00 215.00 127.97 213.88 125.50 212.50 C 123.03 211.12 119.88 210.00 118.50 210.00 C 116.17 210.00 116.10 209.87 117.50 208.00 C 118.86 206.19 118.81 205.81 115.00 202.00 Z" fill-rule="evenodd"/>
	<path fill="#023190" d="M 104.00 206.50 C 104.00 205.57 104.94 205.00 106.50 205.00 C 108.17 205.00 109.17 205.67 109.50 207.00 C 109.94 208.78 109.72 208.89 107.50 208.00 C 106.12 207.45 104.78 207.22 104.50 207.50 C 104.22 207.78 104.00 207.32 104.00 206.50 Z" fill-rule="evenodd"/>
	<path fill="#F6FCF9" d="M 206.00 210.00 C 199.03 212.32 195.65 214.35 194.00 216.00 C 192.35 217.65 191.00 219.00 191.00 219.00 L 191.00 219.00 C 189.45 215.90 187.65 214.32 186.00 213.50 C 184.35 212.68 183.00 212.00 183.00 212.00 L 183.00 212.00 L 183.00 212.00 C 183.00 212.00 184.57 211.78 186.50 211.50 C 188.43 211.22 190.45 211.00 191.00 211.00 C 191.55 211.00 192.00 210.32 192.00 209.50 C 192.00 208.68 192.90 207.55 194.00 207.00 C 195.10 206.45 197.12 206.00 198.50 206.00 C 199.88 206.00 202.12 206.90 206.00 210.00 Z" fill-rule="evenodd"/>
	<path fill="#F1FAF7" d="M 337.00 210.00 L 337.00 210.00 C 337.00 210.00 335.43 210.45 333.50 211.00 C 331.57 211.55 329.32 212.45 327.00 214.00 L 327.00 214.00 C 327.00 214.00 327.68 212.65 328.50 211.00 C 329.57 208.87 330.72 208.00 332.50 208.00 C 333.88 208.00 335.45 208.45 337.00 210.00 Z" fill-rule="evenodd"/>
	<path fill="#042F81" d="M 183.00 212.00 L 183.00 212.00 C 183.00 212.00 184.35 212.68 186.00 213.50 C 187.65 214.32 189.45 215.90 191.00 219.00 C 187.90 219.00 185.43 218.32 183.50 217.50 C 181.17 216.50 179.67 216.33 179.00 217.00 C 178.45 217.55 177.10 218.00 176.00 218.00 C 174.90 218.00 174.00 218.00 174.00 218.00 L 174.00 218.00 C 173.22 216.45 171.65 216.00 170.00 216.00 C 168.00 216.00 167.00 216.50 167.00 217.50 C 167.00 218.32 167.00 219.00 167.00 219.00 L 167.00 219.00 C 163.12 221.32 160.88 221.78 159.50 221.50 C 158.12 221.22 157.00 221.45 157.00 222.00 C 157.00 222.55 156.32 222.78 155.50 222.50 C 154.50 222.17 154.17 222.50 154.50 223.50 C 154.78 224.32 155.22 225.45 155.50 226.00 C 155.78 226.55 155.55 227.22 155.00 227.50 C 154.45 227.78 154.00 229.35 154.00 231.00 C 154.00 233.67 154.28 233.94 156.50 233.50 C 157.88 233.22 159.00 233.00 159.00 233.00 L 159.00 233.00 L 159.00 233.00 C 159.00 233.00 158.78 240.65 158.00 267.00 L 147.50 267.00 C 141.72 267.00 137.00 266.77 137.00 266.50 C 137.00 266.23 137.00 257.00 137.00 226.00 C 137.78 226.00 138.90 224.88 140.00 223.50 L 142.00 221.00 C 138.12 214.80 137.00 213.00 137.00 213.00 L 137.00 213.00 L 137.00 213.00 C 137.00 213.00 141.72 212.78 147.50 212.50 C 153.28 212.22 158.00 212.22 158.00 212.50 C 158.00 212.78 158.00 213.68 158.00 216.00 C 154.90 216.00 153.78 216.45 153.50 217.00 C 153.22 217.55 153.68 218.68 154.50 219.50 C 155.32 220.32 156.00 221.00 156.00 221.00 L 156.00 221.00 C 156.78 221.00 157.00 220.78 157.00 220.50 C 157.00 220.22 157.00 220.00 157.00 220.00 L 157.00 220.00 C 157.78 220.00 158.45 219.32 159.00 218.50 C 159.55 217.68 160.00 217.00 160.00 217.00 L 160.00 217.00 L 160.00 217.00 C 160.00 217.00 161.12 215.88 162.50 214.50 C 164.13 212.87 166.91 211.65 170.50 211.00 C 174.17 210.33 177.17 210.33 183.00 212.00 Z M 146.00 217.00 C 146.00 217.55 145.10 219.12 144.00 220.50 C 142.40 222.50 142.30 223.00 143.50 223.00 C 144.58 223.00 145.00 224.11 145.00 227.00 C 145.00 230.33 145.33 231.00 147.00 231.00 C 148.67 231.00 149.00 230.33 149.00 227.00 C 149.00 224.80 149.22 221.43 149.50 219.50 C 149.93 216.50 149.71 216.00 148.00 216.00 C 146.90 216.00 146.00 216.45 146.00 217.00 Z" fill-rule="evenodd"/>
	<path fill="#033084" d="M 206.00 210.00 L 206.00 210.00 C 206.00 210.00 207.57 210.00 209.50 210.00 C 211.43 210.00 215.03 210.68 217.50 211.50 C 219.97 212.32 223.12 214.35 224.50 216.00 C 225.88 217.65 227.45 220.35 228.00 222.00 C 228.55 223.65 229.00 234.45 229.00 267.00 L 208.00 267.00 L 207.50 249.00 C 207.12 235.15 206.65 230.54 205.50 229.00 C 204.58 227.78 202.83 227.00 201.00 227.00 C 199.00 227.00 197.33 227.83 196.00 229.50 C 194.17 231.79 194.00 233.50 194.00 267.00 L 173.00 267.00 L 172.50 249.00 C 172.05 232.71 171.81 230.81 170.00 229.00 C 168.90 227.90 166.88 227.00 165.50 227.00 C 163.83 227.00 162.33 228.00 159.00 233.00 L 159.00 233.00 C 159.00 233.00 157.88 233.22 156.50 233.50 C 154.28 233.94 154.00 233.67 154.00 231.00 C 154.00 229.35 154.45 227.78 155.00 227.50 C 155.55 227.22 155.78 226.55 155.50 226.00 C 155.22 225.45 154.78 224.32 154.50 223.50 C 154.17 222.50 154.50 222.17 155.50 222.50 C 156.32 222.78 157.00 222.55 157.00 222.00 C 157.00 221.45 158.12 221.22 159.50 221.50 C 160.88 221.78 163.12 221.32 167.00 219.00 C 170.10 219.78 171.45 219.55 172.00 219.00 C 172.55 218.45 173.22 218.00 173.50 218.00 C 173.78 218.00 174.00 218.00 174.00 218.00 L 174.00 218.00 L 174.00 218.00 C 174.00 218.00 174.90 218.00 176.00 218.00 C 177.10 218.00 178.45 217.55 179.00 217.00 C 179.67 216.33 181.17 216.50 183.50 217.50 C 185.43 218.32 187.90 219.00 191.00 219.00 L 191.00 219.00 C 191.00 219.00 192.35 217.65 194.00 216.00 C 195.65 214.35 199.03 212.32 206.00 210.00 Z M 209.00 216.50 C 207.67 217.50 207.33 218.33 208.00 219.00 C 208.67 219.67 210.17 219.50 212.50 218.50 C 214.43 217.68 216.45 216.78 217.00 216.50 C 217.55 216.22 216.43 215.78 214.50 215.50 C 212.26 215.18 210.28 215.54 209.00 216.50 Z" fill-rule="evenodd"/>
	<path fill="#033083" d="M 236.00 212.00 L 257.00 212.00 L 257.00 267.00 L 246.50 267.00 C 240.72 267.00 236.00 266.77 236.00 266.50 C 236.00 266.23 236.00 253.85 236.00 212.00 Z" fill-rule="evenodd"/>
	<path fill="#0A306D" d="M 137.00 213.00 L 137.00 213.00 C 137.00 213.00 138.12 214.80 142.00 221.00 L 140.00 223.50 C 138.90 224.88 137.78 226.00 137.00 226.00 L 137.00 226.00 C 137.00 226.00 137.00 225.78 137.00 225.50 C 137.00 225.22 137.00 222.30 137.00 213.00 Z" fill-rule="evenodd"/>
	<path fill="#052D8D" d="M 209.00 216.50 C 210.28 215.54 212.26 215.18 214.50 215.50 C 216.43 215.78 217.55 216.22 217.00 216.50 C 216.45 216.78 214.43 217.68 212.50 218.50 C 210.17 219.50 208.67 219.67 208.00 219.00 C 207.33 218.33 207.67 217.50 209.00 216.50 Z" fill-rule="evenodd"/>
	<path fill="#F6FDF8" d="M 74.00 216.00 L 74.00 216.00 C 74.00 216.00 73.78 217.57 73.50 219.50 C 73.22 221.43 73.45 224.57 75.00 230.00 L 75.00 230.00 C 75.00 230.00 73.65 229.55 72.00 229.00 C 70.31 228.44 68.56 226.91 68.00 225.50 C 67.33 223.83 67.33 222.00 68.00 220.00 C 68.67 218.00 69.67 217.00 71.00 217.00 C 72.10 217.00 73.22 216.78 74.00 216.00 Z" fill-rule="evenodd"/>
	<path fill="#022F86" d="M 146.00 217.00 C 146.00 216.45 146.90 216.00 148.00 216.00 C 149.71 216.00 149.93 216.50 149.50 219.50 C 149.22 221.43 149.00 224.80 149.00 227.00 C 149.00 230.33 148.67 231.00 147.00 231.00 C 145.33 231.00 145.00 230.33 145.00 227.00 C 145.00 224.11 144.58 223.00 143.50 223.00 C 142.30 223.00 142.40 222.50 144.00 220.50 C 145.10 219.12 146.00 217.55 146.00 217.00 Z" fill-rule="evenodd"/>
	<path fill="#123697" d="M 158.00 216.00 L 158.00 216.00 C 158.00 216.00 158.22 216.45 158.50 217.00 C 158.78 217.55 159.22 217.78 160.00 217.00 L 160.00 217.00 C 160.00 217.00 159.55 217.68 159.00 218.50 C 158.45 219.32 157.78 220.00 157.00 220.00 C 156.22 220.00 156.00 220.22 156.00 220.50 C 156.00 220.78 156.00 221.00 156.00 221.00 L 156.00 221.00 L 156.00 221.00 C 156.00 221.00 155.32 220.32 154.50 219.50 C 153.68 218.68 153.22 217.55 153.50 217.00 C 153.78 216.45 154.90 216.00 158.00 216.00 Z" fill-rule="evenodd"/>
	<path fill="#01327F" d="M 174.00 218.00 L 174.00 218.00 C 174.00 218.00 173.78 218.00 173.50 218.00 C 173.22 218.00 172.55 218.45 172.00 219.00 C 171.45 219.55 170.10 219.78 167.00 219.00 L 167.00 219.00 C 167.00 219.00 167.00 218.32 167.00 217.50 C 167.00 216.50 168.00 216.00 170.00 216.00 C 171.65 216.00 173.22 216.45 174.00 218.00 Z" fill-rule="evenodd"/>
	<path fill="#042F81" d="M 154.50 217.00 C 154.78 217.00 155.00 217.22 155.00 217.50 C 155.00 217.78 154.78 217.78 154.50 217.50 C 154.22 217.22 154.22 217.00 154.50 217.00 Z" fill-rule="evenodd"/>
	<path fill="#023475" d="M 332.00 220.00 C 331.23 220.78 330.77 221.00 330.50 221.00 C 330.23 221.00 330.00 221.00 330.00 221.00 L 330.00 221.00 L 330.00 221.00 C 330.00 221.00 329.55 221.00 329.00 221.00 C 328.45 221.00 328.00 220.32 328.00 219.50 C 328.00 218.67 328.89 218.00 330.00 218.00 C 331.10 218.00 332.00 218.45 332.00 220.00 Z" fill-rule="evenodd"/>
	<path fill="#033084" d="M 157.00 220.00 L 157.00 220.00 C 157.00 220.00 157.00 220.22 157.00 220.50 C 157.00 220.78 156.78 221.00 156.00 221.00 L 156.00 221.00 C 156.00 221.00 156.00 220.78 156.00 220.50 C 156.00 220.22 156.22 220.00 157.00 220.00 Z" fill-rule="evenodd"/>
	<path fill="#032F82" d="M 332.00 220.00 L 332.00 220.00 C 332.00 220.00 332.00 220.68 332.00 221.50 C 332.00 222.32 332.45 223.00 333.00 223.00 C 333.55 223.00 333.77 223.45 333.50 224.00 C 333.23 224.55 333.45 224.78 334.00 224.50 C 334.55 224.22 334.77 223.55 334.50 223.00 C 334.23 222.45 334.68 221.78 335.50 221.50 C 336.32 221.22 340.15 221.45 344.00 222.00 C 347.85 222.55 351.00 223.45 351.00 224.00 C 351.00 224.55 351.68 225.00 352.50 225.00 C 353.32 225.00 354.00 224.55 354.00 224.00 C 354.00 223.45 354.23 222.32 355.00 220.00 L 355.00 220.00 C 355.00 220.00 355.45 220.45 356.00 221.00 C 356.58 221.58 357.21 231.55 358.00 267.00 L 337.00 267.00 L 337.00 250.50 C 337.00 237.83 336.65 233.30 335.50 231.00 C 334.68 229.35 333.32 227.78 332.50 227.50 C 331.68 227.22 330.32 227.00 329.50 227.00 C 328.68 227.00 327.10 227.90 324.00 231.00 L 324.00 231.00 C 324.00 231.00 323.10 230.32 322.00 229.50 C 320.61 228.46 320.15 227.24 320.50 225.50 C 320.77 224.12 321.23 222.55 321.50 222.00 C 321.77 221.45 322.90 221.22 324.00 221.50 C 325.10 221.78 325.77 222.45 325.50 223.00 C 325.22 223.56 326.33 224.00 328.00 224.00 C 329.65 224.00 331.00 223.55 331.00 223.00 C 331.00 222.45 330.77 221.78 330.00 221.00 L 330.00 221.00 C 330.00 221.00 330.23 221.00 330.50 221.00 C 330.77 221.00 331.23 220.78 332.00 220.00 Z" fill-rule="evenodd"/>
	<path fill="#033084" d="M 331.50 221.00 C 331.77 221.00 332.00 221.22 332.00 221.50 C 332.00 221.78 331.77 221.78 331.50 221.50 C 331.23 221.22 331.23 221.00 331.50 221.00 Z" fill-rule="evenodd"/>
	<path fill="#E6FAF0" d="M 100.50 247.00 C 100.83 246.33 101.17 246.33 101.50 247.00 C 101.78 247.55 102.22 248.45 102.50 249.00 C 102.78 249.55 102.10 250.00 101.00 250.00 C 99.90 250.00 99.22 249.55 99.50 249.00 C 99.78 248.45 100.22 247.55 100.50 247.00 Z" fill-rule="evenodd"/>
	<path fill="#043087" d="M 88.00 251.50 C 88.00 251.22 88.67 251.00 89.50 251.00 C 90.50 251.00 90.67 251.33 90.00 252.00 C 89.45 252.55 89.00 253.90 89.00 255.00 C 89.00 256.10 88.55 256.77 88.00 256.50 C 87.45 256.23 86.10 256.45 85.00 257.00 C 83.29 257.86 83.36 257.57 85.50 255.00 C 86.88 253.35 88.00 251.78 88.00 251.50 Z" fill-rule="evenodd"/>
	<path fill="#043087" d="M 86.00 257.50 C 86.00 257.77 85.78 258.23 85.50 258.50 C 85.22 258.77 85.22 258.55 85.50 258.00 C 85.78 257.45 86.00 257.23 86.00 257.50 Z" fill-rule="evenodd"/>
	<path fill="#FEFDF4" d="M 200.00 272.00 C 200.00 269.68 200.00 268.77 200.00 268.50 C 200.00 268.23 200.00 268.00 200.00 268.00 L 200.00 268.00 L 200.00 268.00 C 200.00 268.00 200.00 267.32 200.00 266.50 C 200.00 265.68 200.00 264.55 200.00 264.00 C 200.00 263.45 200.45 263.00 201.00 263.00 C 201.58 263.00 201.79 264.67 201.50 267.00 C 201.22 269.20 200.78 271.23 200.00 272.00 Z" fill-rule="evenodd"/>
	<path fill="#ECFDFA" d="M 200.00 268.00 L 200.00 268.00 C 200.00 268.00 200.00 268.23 200.00 268.50 C 200.00 268.77 200.00 269.68 200.00 272.00 L 200.00 272.00 C 200.00 272.00 199.32 271.55 198.50 271.00 C 197.17 270.11 197.17 269.89 200.00 268.00 Z" fill-rule="evenodd"/>
</svg>
