<?xml version="1.0" ?>
<svg xmlns="http://www.w3.org/2000/svg" version="1.1" width="1050" height="1050">
	<g fill="none" stroke-linecap="butt"/>
	<path fill="#782F40FE" d="M 646.00 0.00 C 958.33 0.00 1049.22 0.00 1049.50 0.00 C 1049.78 0.00 1050.00 236.25 1050.00 525.00 L 1050.00 1050.00 L 0.00 1050.00 L 0.00 587.00 C 10.85 599.40 17.38 606.15 21.50 610.00 C 25.62 613.85 33.05 620.38 38.00 624.50 C 42.95 628.62 51.72 635.38 57.50 639.50 C 63.28 643.62 74.08 650.83 81.50 655.50 C 88.92 660.17 103.10 668.05 113.00 673.00 C 122.90 677.95 136.85 684.48 144.00 687.50 C 151.15 690.52 165.78 695.92 176.50 699.50 C 187.22 703.08 202.07 707.58 209.50 709.50 C 216.93 711.42 229.07 714.12 236.50 715.50 C 243.93 716.88 256.30 718.67 264.00 719.50 C 272.59 720.42 287.67 721.00 303.00 721.00 C 318.33 721.00 333.41 720.42 342.00 719.50 C 349.70 718.67 360.73 717.10 366.50 716.00 C 372.27 714.90 383.30 712.42 391.00 710.50 C 398.70 708.58 412.20 704.52 421.00 701.50 C 429.80 698.48 442.18 693.75 448.50 691.00 C 454.82 688.25 468.32 681.73 478.50 676.50 C 488.68 671.27 503.30 663.17 511.00 658.50 C 518.70 653.83 529.27 646.85 534.50 643.00 C 539.73 639.15 550.52 630.83 558.50 624.50 C 566.48 618.17 577.95 608.27 584.00 602.50 L 595.00 592.00 C 596.55 670.27 597.00 693.23 597.00 693.50 C 597.00 693.77 634.80 694.00 681.00 694.00 L 765.00 694.00 C 765.00 286.89 764.83 261.94 763.50 261.50 C 762.67 261.23 668.62 261.00 554.50 261.00 C 440.38 261.00 346.32 261.23 345.50 261.50 C 344.18 261.94 344.00 272.28 344.00 346.50 L 344.00 431.00 C 470.83 431.00 479.00 431.18 479.00 432.50 C 479.00 433.32 476.52 436.93 473.50 440.50 C 470.48 444.07 465.30 449.93 462.00 453.50 C 458.70 457.07 451.95 463.38 447.00 467.50 C 442.05 471.62 433.27 478.15 427.50 482.00 C 421.73 485.85 410.48 492.15 402.50 496.00 C 394.52 499.85 382.60 504.80 376.00 507.00 C 369.40 509.20 358.82 512.12 352.50 513.50 C 346.18 514.88 335.82 516.67 329.50 517.50 C 322.44 518.42 309.89 519.00 297.00 519.00 C 281.33 519.00 272.44 518.49 262.00 517.00 C 254.30 515.90 243.05 513.65 237.00 512.00 C 230.95 510.35 220.15 506.75 213.00 504.00 C 205.15 500.98 195.84 496.43 189.50 492.50 C 183.72 488.93 174.95 483.30 170.00 480.00 C 164.22 476.15 156.17 469.17 147.50 460.50 C 140.07 453.07 130.62 442.50 126.50 437.00 C 122.38 431.50 116.08 421.82 112.50 415.50 C 108.92 409.18 103.75 398.82 101.00 392.50 C 98.25 386.18 94.42 376.05 92.50 370.00 C 90.58 363.95 87.65 352.25 86.00 344.00 C 84.35 335.75 82.55 323.60 82.00 317.00 C 81.45 310.40 81.22 298.48 81.50 290.50 C 81.78 282.52 82.67 271.50 83.50 266.00 C 84.33 260.50 86.35 250.38 88.00 243.50 C 89.65 236.62 92.58 226.50 94.50 221.00 C 96.42 215.50 100.03 206.28 102.50 200.50 C 104.97 194.72 109.92 185.28 113.50 179.50 C 117.08 173.72 122.47 165.40 125.50 161.00 C 128.53 156.60 136.18 147.60 142.50 141.00 C 148.82 134.40 157.38 126.30 161.50 123.00 C 165.62 119.70 173.05 114.30 178.00 111.00 C 182.95 107.70 192.62 102.30 199.50 99.00 C 206.38 95.70 217.18 91.20 223.50 89.00 C 229.82 86.80 239.05 84.10 244.00 83.00 C 248.95 81.90 257.95 80.33 264.00 79.50 C 271.00 78.55 283.00 78.00 297.00 78.00 C 310.78 78.00 323.30 78.56 330.50 79.50 C 336.82 80.33 346.95 82.12 353.00 83.50 C 359.05 84.88 369.40 87.80 376.00 90.00 C 382.60 92.20 392.05 95.80 397.00 98.00 C 401.95 100.20 410.50 104.70 416.00 108.00 C 421.50 111.30 430.27 116.92 435.50 120.50 C 441.61 124.68 450.17 132.17 459.50 141.50 C 467.77 149.77 476.15 159.22 479.00 163.50 L 484.00 171.00 C 681.67 171.00 722.00 170.66 722.00 170.00 C 722.00 169.45 720.42 162.93 718.50 155.50 C 716.58 148.07 712.98 135.70 710.50 128.00 C 708.02 120.30 703.98 108.83 701.50 102.50 C 699.02 96.17 694.30 85.15 691.00 78.00 C 687.70 70.85 681.85 59.15 678.00 52.00 C 674.15 44.85 667.62 33.60 663.50 27.00 C 659.38 20.40 653.75 11.62 651.00 7.50 L 646.00 0.00 Z M 120.50 845.50 C 119.12 845.77 114.17 846.90 109.50 848.00 C 104.83 849.10 97.85 851.35 94.00 853.00 C 90.15 854.65 83.85 858.02 80.00 860.50 C 76.15 862.98 70.30 867.92 67.00 871.50 C 63.70 875.08 59.65 880.48 58.00 883.50 C 56.35 886.52 53.88 892.15 52.50 896.00 C 51.12 899.85 49.55 906.60 49.00 911.00 C 48.45 915.40 48.23 922.83 48.50 927.50 C 48.77 932.17 49.67 938.48 50.50 941.50 C 51.33 944.52 53.80 950.83 56.00 955.50 C 59.22 962.35 61.56 965.56 68.00 972.00 C 72.40 976.40 78.47 981.35 81.50 983.00 C 84.53 984.65 91.50 987.58 97.00 989.50 C 102.50 991.42 110.15 993.45 114.00 994.00 C 117.85 994.55 127.75 994.77 136.00 994.50 C 144.61 994.21 153.34 993.36 156.50 992.50 C 159.53 991.67 164.93 989.65 168.50 988.00 C 172.07 986.35 176.80 983.42 179.00 981.50 L 183.00 978.00 C 184.55 985.75 185.22 989.58 185.50 991.50 L 186.00 995.00 L 221.00 995.00 L 221.00 913.00 L 145.00 913.00 L 145.00 944.00 L 170.00 944.00 C 167.68 948.65 165.65 951.12 164.00 952.50 C 162.35 953.88 158.53 956.12 155.50 957.50 C 150.81 959.63 148.53 960.00 140.00 960.00 C 134.00 960.00 128.00 959.40 125.00 958.50 C 121.89 957.57 118.11 955.30 115.00 952.50 C 111.77 949.59 109.29 946.23 108.00 943.00 C 106.90 940.25 105.55 935.08 105.00 931.50 C 104.45 927.92 104.22 921.17 104.50 916.50 C 104.78 911.83 105.90 905.08 107.00 901.50 C 108.21 897.57 110.58 893.02 113.00 890.00 C 115.74 886.57 118.73 884.21 122.50 882.50 C 126.99 880.46 129.57 880.00 136.50 880.00 C 141.18 880.00 147.03 880.45 149.50 881.00 C 152.55 881.68 155.61 883.45 159.00 886.50 C 161.75 888.98 164.45 892.35 165.00 894.00 L 166.00 897.00 L 219.00 897.00 C 218.22 892.35 216.65 888.08 215.00 884.50 C 213.35 880.92 210.20 875.52 208.00 872.50 C 205.80 869.48 201.30 864.98 198.00 862.50 C 194.70 860.02 188.18 856.20 183.50 854.00 C 178.82 851.80 171.40 849.10 167.00 848.00 C 161.08 846.52 154.31 845.87 141.00 845.50 C 131.10 845.23 121.88 845.23 120.50 845.50 Z M 289.00 855.00 C 244.05 959.62 230.78 991.12 230.50 992.50 L 230.00 995.00 L 283.00 995.00 L 288.00 977.00 L 344.00 978.00 L 350.00 995.00 C 394.33 995.00 404.00 994.64 404.00 994.00 C 404.00 993.45 391.18 963.08 375.50 926.50 C 359.82 889.92 346.55 858.88 346.00 857.50 L 345.00 855.00 L 289.00 855.00 Z M 412.00 855.00 C 412.00 962.73 412.00 994.23 412.00 994.50 C 412.00 994.77 421.68 995.00 433.50 995.00 L 455.00 995.00 C 455.00 957.17 455.39 947.61 456.00 947.00 C 456.62 946.38 462.81 946.19 472.50 946.50 C 481.02 946.77 489.35 947.45 491.00 948.00 C 492.65 948.55 495.12 949.90 496.50 951.00 C 497.88 952.10 499.68 954.35 500.50 956.00 C 501.60 958.20 502.13 963.82 502.50 977.00 L 503.00 995.00 L 546.00 995.00 C 546.00 972.52 545.55 963.75 545.00 961.00 C 544.45 958.25 542.65 953.30 541.00 950.00 C 539.35 946.70 536.20 942.20 534.00 940.00 C 531.80 937.80 527.08 934.42 523.50 932.50 L 517.00 929.00 C 527.67 925.44 530.33 923.67 535.00 919.00 C 539.29 914.71 541.57 911.43 543.00 907.50 C 544.70 902.83 544.92 900.33 544.50 891.00 C 544.15 883.29 543.40 878.50 542.00 875.00 C 540.90 872.25 538.43 868.65 536.50 867.00 C 534.58 865.35 530.52 862.88 527.50 861.50 C 524.48 860.12 518.40 858.33 514.00 857.50 C 507.90 856.36 494.81 855.88 459.00 855.50 L 412.00 855.00 Z M 546.00 855.00 C 587.85 958.08 600.67 989.58 601.50 991.50 L 603.00 995.00 L 659.00 995.00 C 702.40 889.60 715.23 858.10 715.50 857.00 C 715.99 855.03 715.62 855.01 689.00 855.50 L 662.00 856.00 C 637.98 926.52 630.77 947.23 630.50 947.50 C 630.23 947.77 629.33 945.75 628.50 943.00 C 627.67 940.25 621.60 920.90 615.00 900.00 C 608.40 879.10 602.55 860.42 602.00 858.50 L 601.00 855.00 L 546.00 855.00 Z M 724.00 855.00 C 724.00 962.73 724.00 994.23 724.00 994.50 C 724.00 994.77 755.50 995.00 794.00 995.00 L 864.00 995.00 L 864.00 963.00 L 779.00 963.00 L 779.00 940.00 L 841.00 940.00 L 841.00 908.00 L 779.00 908.00 L 779.00 887.00 L 861.00 887.00 L 861.00 855.00 L 724.00 855.00 Z M 873.00 855.00 C 873.00 962.73 873.00 994.23 873.00 994.50 C 873.00 994.77 882.67 995.00 894.50 995.00 L 916.00 995.00 C 916.00 959.35 916.23 948.33 916.50 947.50 C 916.91 946.27 919.28 946.00 929.50 946.00 C 936.38 946.00 944.25 946.45 947.00 947.00 C 949.75 947.55 953.58 948.67 955.50 949.50 C 957.83 950.50 959.67 952.33 961.00 955.00 C 962.71 958.41 963.07 961.65 963.50 977.00 L 964.00 995.00 L 1007.00 995.00 C 1007.00 972.52 1006.55 963.75 1006.00 961.00 C 1005.45 958.25 1003.65 953.30 1002.00 950.00 C 1000.33 946.67 997.00 942.22 994.50 940.00 C 992.02 937.80 987.30 934.42 984.00 932.50 L 978.00 929.00 C 988.67 925.44 991.33 923.67 996.00 919.00 C 1000.29 914.71 1002.57 911.43 1004.00 907.50 C 1005.70 902.83 1005.92 900.33 1005.50 891.00 C 1005.14 883.02 1004.45 878.77 1003.00 875.50 C 1001.90 873.02 999.88 869.65 998.50 868.00 C 997.12 866.35 993.75 863.88 991.00 862.50 C 988.25 861.12 981.95 859.10 977.00 858.00 C 968.91 856.20 963.19 855.95 920.50 855.50 L 873.00 855.00 Z" fill-rule="evenodd"/>
	<path fill="#782F40F7" d="M 456.00 887.00 C 484.21 887.83 491.53 888.51 494.50 889.50 C 496.98 890.33 500.12 892.35 501.50 894.00 C 503.43 896.32 504.00 898.13 504.00 902.00 C 504.00 906.22 503.53 907.47 501.00 910.00 C 499.35 911.65 496.43 913.45 494.50 914.00 C 492.57 914.55 483.12 915.23 473.50 915.50 L 456.00 916.00 C 455.23 912.12 455.23 905.60 455.50 899.00 L 456.00 887.00 Z" fill-rule="evenodd"/>
	<path fill="#782F40F7" d="M 917.00 887.00 C 945.21 887.83 952.53 888.51 955.50 889.50 C 957.98 890.33 961.12 892.35 962.50 894.00 C 964.43 896.32 965.00 898.13 965.00 902.00 C 965.00 906.22 964.53 907.47 962.00 910.00 C 960.35 911.65 957.42 913.45 955.50 914.00 C 953.58 914.55 944.12 915.23 934.50 915.50 L 917.00 916.00 C 916.23 912.12 916.23 905.60 916.50 899.00 L 917.00 887.00 Z" fill-rule="evenodd"/>
	<path fill="#782F40FB" d="M 316.50 897.50 C 316.77 897.77 321.05 909.25 326.00 923.00 L 335.00 948.00 C 305.33 948.00 299.18 947.65 299.50 947.00 C 299.77 946.45 303.60 934.98 308.00 921.50 C 312.40 908.02 316.23 897.23 316.50 897.50 Z" fill-rule="evenodd"/>
</svg>
