<?xml version="1.0" encoding="utf-8"?>
<!-- Generator: Adobe Illustrator 19.2.1, SVG Export Plug-In . SVG Version: 6.00 Build 0)  -->
<svg version="1.1" id="layer" xmlns="http://www.w3.org/2000/svg" xmlns:xlink="http://www.w3.org/1999/xlink" x="0px" y="0px"
	 viewBox="0 0 652 652" style="enable-background:new 0 0 652 652;" xml:space="preserve">
<style type="text/css">
	.st0{fill:#006F3B;}
	.st1{fill:#FFB819;}
</style>
<g>
	<path class="st0" d="M242.9,275.7L210.6,361l-20.8-31.4c5-1.6,9.2-4.2,12.2-8c3.7-4.6,5.5-10.6,5.5-17.7c0-9.5-2.9-16.9-9.2-21.6
		c-6.2-4.7-15.1-6.6-26.6-6.7h-47v90.7h26.4V330h12.1l22.4,36.2h28.6l0,0h22.7l6-19.5h31.8l6.4,19.5h28.3l-34-90.6H242.9z
		 M181.4,307.5c-0.8,1.4-1.9,2.4-4.3,3.1c-2.4,0.7-5.8,1-10.1,1h-15.8v-14.5h15.8c5.8,0,10,0.5,12.2,1.8c1.1,0.6,1.8,1.3,2.3,2.2
		c0.5,1,0.8,1.1,0.8,3C182.2,306,181.9,306.5,181.4,307.5 M247.8,329.8l11-31.3h0.2l10,31.3H247.8z M401.3,366.3h26.4v-90.6h-26.4
		V366.3z M433.1,297.1h29v69.2h26.4v-69.2h29v-21.4h-84.4V297.1z M602.2,297.1v-21.4h-79.2v90.6h79.2v-19.5h-52.9v-16.9h48.6v-18.3
		h-48.6v-14.5H602.2z M379.4,275.7c-0.7-0.1-1.3-0.1-2-0.1h-67.9v90.7h26.3V297h25.9c4.7,0,8.6,5.1,8.6,11.4v57.9h26V297
		c0-5.6-1.8-10.7-4.9-14.5C388.4,278.6,384.2,276.1,379.4,275.7 M78.1,308.9V330H91v15.2H70.3c-8,0-12.9-2-16-5.8
		c-3.1-3.7-4.7-9.6-4.8-18.3c0.1-8.7,1.8-14.7,4.8-18.3c3.1-3.8,8-5.7,16-5.8l23.5,0l25.3-21.4H69.4c-11.6,0-21.8,0.8-32.1,8.3
		c-11,7.8-16.3,20.5-16.3,37h0c0,0,0,0.1,0,0.1c0,0,0,0.1,0,0.1h0c0,16.5,5.3,29.2,16.3,37c10.4,7.6,20.6,8.1,32.4,8.1h49.4
		c-0.6-18.2-5.6-30.8-13.6-39.9C98.6,318.4,89.2,313,78.1,308.9"/>
</g>
<g>
	<path class="st1" d="M108.8,323.5c4.5,5.1,8,11.1,10.5,18.3v-32.4c-0.2-2.8-1.7-5-3.6-5l-37.4,0
		C90.4,308.7,100.9,314.6,108.8,323.5"/>
	<path class="st0" d="M607.5,282.9c0-1.3,0.3-2.5,0.9-3.6c0.6-1.1,1.4-2,2.5-2.6c1.1-0.6,2.2-1,3.4-1c1.2,0,2.4,0.3,3.4,1
		c1.1,0.6,1.9,1.5,2.5,2.6c0.6,1.1,0.9,2.3,0.9,3.6c0,1.3-0.3,2.4-0.9,3.5c-0.6,1.1-1.4,2-2.4,2.6c-1.1,0.7-2.2,1-3.5,1
		c-1.3,0-2.4-0.3-3.5-1c-1.1-0.7-1.9-1.5-2.5-2.6C607.7,285.3,607.5,284.1,607.5,282.9 M608.5,282.8c0,1.1,0.3,2.1,0.8,3
		c0.5,0.9,1.2,1.7,2.1,2.2c0.9,0.5,1.8,0.8,2.8,0.8c1,0,2-0.3,2.9-0.8s1.6-1.3,2.1-2.2c0.5-0.9,0.8-1.9,0.8-3c0-1.1-0.3-2.1-0.8-3
		c-0.5-0.9-1.2-1.6-2.1-2.2c-0.9-0.5-1.8-0.8-2.9-0.8c-1,0-2,0.3-2.8,0.8c-0.9,0.5-1.6,1.3-2.1,2.2
		C608.8,280.8,608.5,281.8,608.5,282.8 M612.8,283.6v3.2h-1.3v-8.1h2.6c1,0,1.7,0.2,2.3,0.6c0.5,0.4,0.8,1,0.8,1.8
		c0,0.8-0.4,1.4-1.2,1.8c0.8,0.3,1.2,1,1.2,1.9v0.6c0,0.6,0.1,0.9,0.2,1.2v0.2h-1.4c-0.1-0.2-0.1-0.6-0.1-1.2c0-0.6,0-0.9,0-1
		c-0.1-0.6-0.5-0.9-1.3-1H612.8z M612.8,282.3h1.5c0.5,0,0.8-0.1,1.1-0.3c0.3-0.2,0.4-0.5,0.4-0.8c0-0.5-0.1-0.8-0.4-1
		c-0.3-0.2-0.7-0.3-1.3-0.3h-1.3V282.3z"/>
</g>
</svg>
