<?xml version="1.0" encoding="UTF-8"?>
<!-- Generator: Adobe Illustrator 13.0.0, SVG Export Plug-In . SVG Version: 6.00 Build 14948)  -->
<!DOCTYPE svg PUBLIC "-//W3C//DTD SVG 1.1//EN" "http://www.w3.org/Graphics/SVG/1.1/DTD/svg11.dtd">
<svg version="1.1" id="Layer_1" xmlns="http://www.w3.org/2000/svg" xmlns:xlink="http://www.w3.org/1999/xlink" x="0px" y="0px" width="192.756px" height="192.756px" viewBox="0 0 192.756 192.756" enable-background="new 0 0 192.756 192.756" xml:space="preserve">
<g>
	<polygon fill-rule="evenodd" clip-rule="evenodd" fill="none" points="0,0 192.756,0 192.756,192.756 0,192.756 0,0"/>
	<path fill-rule="evenodd" clip-rule="evenodd" fill="#005BAB" d="M64.154,127.988c9.031,16.01,26.272,32.018,55.416,32.838   c20.115,0,36.534-8.209,48.85-22.986c2.053-2.873,4.515-6.568,5.746-9.441h1.643c-13.301,31.842-43.619,53.791-77.743,54.186   h-1.893c-14.778-0.412-28.324-3.285-41.46-10.674c0,0-25.86-11.904-38.175-43.512h48.027L64.154,127.988L64.154,127.988z"/>
	<path fill="none" stroke="#F1EED3" stroke-width="0.0016" stroke-linecap="square" stroke-miterlimit="2.6131" d="M64.154,127.988   c9.031,16.01,26.272,32.018,55.416,32.838c20.115,0,36.534-8.209,48.85-22.986c2.053-2.873,4.515-6.568,5.746-9.441h1.643   c-13.301,31.842-43.619,53.791-77.743,54.186 M96.173,182.584c-14.778-0.412-28.324-3.285-41.46-10.674   c0,0-25.86-11.904-38.175-43.512h48.027"/>
	<path fill-rule="evenodd" clip-rule="evenodd" fill="#ED1B2F" d="M88.374,77.498c3.284,4.925,5.747,8.21,7.799,11.494   c2.463-3.694,4.104-6.157,7.8-11.494c5.747,0,12.726,0,18.472,0c-5.336,6.978-10.673,14.367-14.367,18.883   c4.926,6.567,9.441,12.725,14.367,18.883h-18.883c-2.463-3.695-4.515-6.979-7.389-11.084c-2.052,3.283-5.336,7.799-7.799,11.084   c-6.157,0-13.136,0-18.472,0c4.515-6.158,9.441-12.727,14.367-18.883c-4.515-5.747-10.262-12.726-14.367-18.883   C75.238,77.498,80.164,77.498,88.374,77.498L88.374,77.498L88.374,77.498z"/>
	<path fill="none" stroke="#F1EED3" stroke-width="0.0016" stroke-linecap="square" stroke-miterlimit="2.6131" d="M88.374,77.498   c3.284,4.925,5.747,8.21,7.799,11.494c2.463-3.694,4.104-6.157,7.8-11.494c5.747,0,12.726,0,18.472,0   c-5.336,6.978-10.673,14.367-14.367,18.883c4.926,6.567,9.441,12.725,14.367,18.883h-18.883c-2.463-3.695-4.515-6.979-7.389-11.084   c-2.052,3.283-5.336,7.799-7.799,11.084c-6.157,0-13.136,0-18.472,0c4.515-6.158,9.441-12.727,14.367-18.883   c-4.515-5.747-10.262-12.726-14.367-18.883C75.238,77.498,80.164,77.498,88.374,77.498"/>
	<path fill-rule="evenodd" clip-rule="evenodd" fill="#ED1B2F" d="M153.23,88.581c2.874-3.695,5.748-7.389,8.621-11.083   c5.747,0,12.314,0,17.651,0c-7.39,9.441-15.599,19.704-18.473,23.397v14.369h-16.009v-14.369   c-3.283-4.514-14.778-18.882-18.062-23.397h17.65L153.23,88.581L153.23,88.581z"/>
	<path fill="none" stroke="#F1EED3" stroke-width="0.0016" stroke-linecap="square" stroke-miterlimit="2.6131" d="M153.23,88.581   c2.874-3.695,5.748-7.389,8.621-11.083c5.747,0,12.314,0,17.651,0c-7.39,9.441-15.599,19.704-18.473,23.397v14.369h-16.009v-14.369   c-3.283-4.514-14.778-18.882-18.062-23.397h17.65L153.23,88.581"/>
	<path fill-rule="evenodd" clip-rule="evenodd" fill="#005BAB" d="M127.78,64.772c-8.62-15.598-25.86-31.608-55.005-32.839   c-20.524,0-36.533,8.62-48.849,22.988c-2.053,2.874-4.515,6.568-6.157,9.441h-1.231C29.872,32.44,60.312,10.465,94.542,10.177   c0.543-0.005,1.086-0.007,1.63,0c14.778,0.82,28.324,3.694,41.46,10.672c0,0,25.45,11.904,38.176,43.512h-48.438L127.78,64.772   L127.78,64.772z"/>
	<path fill="none" stroke="#F1EED3" stroke-width="0.0016" stroke-linecap="square" stroke-miterlimit="2.6131" d="M127.78,64.772   c-8.62-15.598-25.86-31.608-55.005-32.839c-20.524,0-36.533,8.62-48.849,22.988c-2.053,2.874-4.515,6.568-6.157,9.441h-1.231   C29.872,32.44,60.312,10.465,94.542,10.177c0.543-0.005,1.086-0.007,1.63,0c14.778,0.82,28.324,3.694,41.46,10.672   c0,0,25.45,11.904,38.176,43.512h-48.438"/>
	<path fill-rule="evenodd" clip-rule="evenodd" fill="#ED1B2F" d="M54.303,115.264H23.516c-6.978,0-10.262-4.928-10.262-8.621   c0-10.262,0-13.957,0-20.935c1.231-6.158,6.568-8.21,10.262-8.21h30.788c9.851-0.411,9.851,8.21,9.851,8.21   c0,4.926,0,11.904,0,20.935C64.154,106.643,64.976,115.264,54.303,115.264L54.303,115.264z M29.263,96.38c0,1.641,0,0.821,0,3.694   c0,0,0,4.105,4.105,4.105c2.052,0,4.105,0,5.746,0c2.463,0,3.695,0,5.747,0c2.874,0,3.695-1.232,3.695-4.105   c0-2.463,0.41-6.567,0.41-7.389c-0.41-2.463-2.052-4.104-4.104-4.104c-7.388,0,0,0-5.747,0c-1.641,0-3.694,0-5.746,0   c-4.105-0.411-4.105,3.694-4.105,3.694C29.263,95.148,29.263,95.559,29.263,96.38L29.263,96.38z"/>
	<path fill-rule="evenodd" clip-rule="evenodd" fill="#ED1B2F" d="M54.303,115.264H23.516c-6.978,0-10.262-4.928-10.262-8.621   c0-10.262,0-13.957,0-20.935c1.231-6.158,6.568-8.21,10.262-8.21h30.788c9.851-0.411,9.851,8.21,9.851,8.21   c0,4.926,0,11.904,0,20.935C64.154,106.643,64.976,115.264,54.303,115.264L54.303,115.264z M29.263,96.38c0,1.641,0,0.821,0,3.694   c0,0,0,4.105,4.105,4.105c2.052,0,4.105,0,5.746,0c2.463,0,3.695,0,5.747,0c2.874,0,3.695-1.232,3.695-4.105   c0-2.463,0.41-6.567,0.41-7.389c0-2.463-2.052-4.104-4.104-4.104c-7.388,0,0,0-5.747,0c-1.641,0-3.694,0-5.746,0   c-4.105-0.411-4.105,3.694-4.105,3.694C29.263,95.148,29.263,95.559,29.263,96.38L29.263,96.38L29.263,96.38z"/>
	<path fill="none" stroke="#F1EED3" stroke-width="0.0016" stroke-linecap="square" stroke-miterlimit="2.6131" d="M54.303,115.264   H23.516c-6.978,0-10.262-4.928-10.262-8.621c0-10.262,0-13.957,0-20.935c1.231-6.158,6.568-8.21,10.262-8.21h30.788   c9.851-0.411,9.851,8.21,9.851,8.21c0,4.926,0,11.904,0,20.935C64.154,106.643,64.976,115.264,54.303,115.264L54.303,115.264z    M29.263,96.38c0,1.641,0,0.821,0,3.694c0,0,0,4.105,4.105,4.105c2.052,0,4.105,0,5.746,0c2.463,0,3.695,0,5.747,0   c2.874,0,3.695-1.232,3.695-4.105c0-2.463,0.41-6.567,0.41-7.389c0-2.463-2.052-4.104-4.104-4.104c-7.388,0,0,0-5.747,0   c-1.641,0-3.694,0-5.746,0c-4.105-0.411-4.105,3.694-4.105,3.694C29.263,95.148,29.263,95.559,29.263,96.38"/>
</g>
</svg>