<?xml version="1.0" ?>
<svg xmlns="http://www.w3.org/2000/svg" version="1.1" width="196" height="196">
	<g fill="none" stroke-linecap="butt">
		<path stroke="#FEFEFE" d="M 13.00 65.00 L 42.00 65.00 C 64.89 65.00 72.05 65.32 76.00 66.50 C 78.75 67.33 82.58 69.35 84.50 71.00 C 86.42 72.65 88.90 75.80 90.00 78.00 C 91.50 81.00 92.00 84.00 92.00 90.00 C 92.00 96.53 91.54 98.92 89.50 103.00 C 88.12 105.75 85.65 108.90 84.00 110.00 C 82.35 111.10 79.20 112.67 77.00 113.50 C 73.96 114.64 68.44 115.00 35.00 115.00 L 35.00 132.00 L 24.00 132.00 C 17.95 132.00 13.00 131.78 13.00 131.50 C 13.00 131.22 13.00 116.15 13.00 65.00" vector-effect="non-scaling-stroke"/>
		<path stroke="#FEFEFE" d="M 101.00 65.00 L 129.50 65.50 C 157.24 65.99 158.15 66.07 163.50 68.50 C 166.53 69.88 170.80 72.80 173.00 75.00 C 175.20 77.20 177.90 81.03 179.00 83.50 C 180.59 87.07 181.00 90.17 181.00 98.50 C 181.00 107.70 180.69 109.62 178.50 114.00 C 177.12 116.75 174.43 120.58 172.50 122.50 C 170.57 124.42 166.53 127.12 163.50 128.50 C 158.15 130.93 157.24 131.01 129.50 131.50 C 113.82 131.78 101.00 131.78 101.00 131.50 C 101.00 131.22 101.00 116.15 101.00 65.00" vector-effect="non-scaling-stroke"/>
		<path stroke="#2D2D2D" d="M 73.00 83.50 C 73.00 83.22 73.22 86.15 74.00 97.00 L 35.00 97.00 L 35.00 84.00 L 54.00 84.00 C 64.45 84.00 73.00 83.78 73.00 83.50" vector-effect="non-scaling-stroke"/>
		<path stroke="#2D2D2D" d="M 123.00 84.00 L 135.00 84.00 C 141.60 84.00 148.35 84.45 150.00 85.00 C 151.65 85.55 154.12 86.90 155.50 88.00 C 156.88 89.10 158.45 91.80 159.00 94.00 C 159.67 96.67 159.67 99.33 159.00 102.00 C 158.45 104.20 157.32 106.90 156.50 108.00 C 155.68 109.10 153.43 110.67 151.50 111.50 C 149.30 112.44 143.34 113.19 135.50 113.50 C 128.62 113.78 123.00 113.78 123.00 113.50 C 123.00 113.22 123.00 106.47 123.00 84.00" vector-effect="non-scaling-stroke"/>
	</g>
	<path fill="#2D2D2D" d="M 0.00 0.00 C 151.12 0.00 195.22 0.00 195.50 0.00 C 195.78 0.00 196.00 44.10 196.00 98.00 L 196.00 196.00 L 0.00 196.00 L 0.00 0.00 Z M 13.00 65.00 C 13.00 116.15 13.00 131.22 13.00 131.50 C 13.00 131.78 17.95 132.00 24.00 132.00 L 35.00 132.00 L 35.00 115.00 C 68.44 115.00 73.96 114.64 77.00 113.50 C 79.20 112.67 82.35 111.10 84.00 110.00 C 85.65 108.90 88.12 105.75 89.50 103.00 C 91.54 98.92 92.00 96.53 92.00 90.00 C 92.00 84.00 91.50 81.00 90.00 78.00 C 88.90 75.80 86.42 72.65 84.50 71.00 C 82.58 69.35 78.75 67.33 76.00 66.50 C 72.05 65.32 64.89 65.00 42.00 65.00 L 13.00 65.00 Z M 101.00 65.00 C 101.00 116.15 101.00 131.22 101.00 131.50 C 101.00 131.78 113.82 131.78 129.50 131.50 C 157.24 131.01 158.15 130.93 163.50 128.50 C 166.53 127.12 170.57 124.42 172.50 122.50 C 174.43 120.58 177.12 116.75 178.50 114.00 C 180.69 109.62 181.00 107.70 181.00 98.50 C 181.00 90.17 180.59 87.07 179.00 83.50 C 177.90 81.03 175.20 77.20 173.00 75.00 C 170.80 72.80 166.53 69.88 163.50 68.50 C 158.15 66.07 157.24 65.99 129.50 65.50 L 101.00 65.00 Z" fill-rule="evenodd"/>
	<path fill="#FEFEFE" d="M 13.00 65.00 L 42.00 65.00 C 64.89 65.00 72.05 65.32 76.00 66.50 C 78.75 67.33 82.58 69.35 84.50 71.00 C 86.42 72.65 88.90 75.80 90.00 78.00 C 91.50 81.00 92.00 84.00 92.00 90.00 C 92.00 96.53 91.54 98.92 89.50 103.00 C 88.12 105.75 85.65 108.90 84.00 110.00 C 82.35 111.10 79.20 112.67 77.00 113.50 C 73.96 114.64 68.44 115.00 35.00 115.00 L 35.00 132.00 L 24.00 132.00 C 17.95 132.00 13.00 131.78 13.00 131.50 C 13.00 131.22 13.00 116.15 13.00 65.00 Z M 73.00 83.50 C 73.00 83.78 64.45 84.00 54.00 84.00 L 35.00 84.00 L 35.00 97.00 L 74.00 97.00 C 73.22 86.15 73.00 83.22 73.00 83.50 Z" fill-rule="evenodd"/>
	<path fill="#FEFEFE" d="M 101.00 65.00 L 129.50 65.50 C 157.24 65.99 158.15 66.07 163.50 68.50 C 166.53 69.88 170.80 72.80 173.00 75.00 C 175.20 77.20 177.90 81.03 179.00 83.50 C 180.59 87.07 181.00 90.17 181.00 98.50 C 181.00 107.70 180.69 109.62 178.50 114.00 C 177.12 116.75 174.43 120.58 172.50 122.50 C 170.57 124.42 166.53 127.12 163.50 128.50 C 158.15 130.93 157.24 131.01 129.50 131.50 C 113.82 131.78 101.00 131.78 101.00 131.50 C 101.00 131.22 101.00 116.15 101.00 65.00 Z M 123.00 84.00 C 123.00 106.47 123.00 113.22 123.00 113.50 C 123.00 113.78 128.62 113.78 135.50 113.50 C 143.34 113.19 149.30 112.44 151.50 111.50 C 153.43 110.67 155.68 109.10 156.50 108.00 C 157.32 106.90 158.45 104.20 159.00 102.00 C 159.67 99.33 159.67 96.67 159.00 94.00 C 158.45 91.80 156.88 89.10 155.50 88.00 C 154.12 86.90 151.65 85.55 150.00 85.00 C 148.35 84.45 141.60 84.00 135.00 84.00 L 123.00 84.00 Z" fill-rule="evenodd"/>
	<path fill="#2D2D2D" d="M 73.00 83.50 C 73.00 83.22 73.22 86.15 74.00 97.00 L 35.00 97.00 L 35.00 84.00 L 54.00 84.00 C 64.45 84.00 73.00 83.78 73.00 83.50 Z" fill-rule="evenodd"/>
	<path fill="#2D2D2D" d="M 123.00 84.00 L 135.00 84.00 C 141.60 84.00 148.35 84.45 150.00 85.00 C 151.65 85.55 154.12 86.90 155.50 88.00 C 156.88 89.10 158.45 91.80 159.00 94.00 C 159.67 96.67 159.67 99.33 159.00 102.00 C 158.45 104.20 157.32 106.90 156.50 108.00 C 155.68 109.10 153.43 110.67 151.50 111.50 C 149.30 112.44 143.34 113.19 135.50 113.50 C 128.62 113.78 123.00 113.78 123.00 113.50 C 123.00 113.22 123.00 106.47 123.00 84.00 Z" fill-rule="evenodd"/>
</svg>
