<svg version="1.1" id="Layer_1" xmlns="http://www.w3.org/2000/svg" xmlns:xlink="http://www.w3.org/1999/xlink" x="0px" y="0px"
	 width="100%" viewBox="0 0 362 139" enable-background="new 0 0 362 139" xml:space="preserve">
<path fill="#FDFDFD" opacity="1.000000" stroke="none" 
	d="
M1.000000,66.000000 
	C1.000000,44.342876 1.000000,22.685755 0.999999,1.021473 
	C121.603973,1.014316 242.207947,1.014316 362.905945,1.014316 
	C362.905945,47.250057 362.905945,93.500374 362.905945,139.875336 
	C242.333420,139.875336 121.666733,139.875336 1.000000,139.875336 
	C1.000000,118.251762 1.000000,96.594536 1.467056,74.513657 
	C15.497655,74.089989 29.061197,74.089989 42.569565,74.089989 
	C42.569565,71.095909 42.569565,68.659157 42.569565,66.000000 
	C28.627945,66.000000 14.813972,66.000000 1.000000,66.000000 
M34.743736,78.103874 
	C24.545809,81.846275 14.347881,85.588676 4.028475,89.375656 
	C5.204874,92.521423 6.228953,95.259872 7.227579,97.930260 
	C19.247635,93.512924 30.929914,89.219719 42.612194,84.926514 
	C42.791771,85.259613 42.971348,85.592712 43.150928,85.925804 
	C33.642017,94.114807 24.133110,102.303802 14.407205,110.679680 
	C16.772823,113.528297 18.827681,116.002708 20.878593,118.472366 
	C29.996984,110.835838 38.584080,103.644264 47.171173,96.452690 
	C47.483700,96.825546 47.796223,97.198395 48.108749,97.571251 
	C42.533226,107.354477 36.957703,117.137711 31.160416,127.310066 
	C34.401413,129.253220 37.338856,131.014359 40.595013,132.966599 
	C46.240280,123.175011 51.738438,113.638580 57.236595,104.102158 
	C57.582401,104.231171 57.928204,104.360184 58.274010,104.489189 
	C56.454308,115.206612 54.634605,125.924034 52.744602,137.055527 
	C56.778633,137.831253 60.439289,138.535172 64.317848,139.280991 
	C66.276436,128.321075 68.132835,117.932938 69.989243,107.544815 
	C70.210144,107.581299 70.431046,107.617783 70.651947,107.654266 
	C72.489868,118.063614 74.327789,128.472977 76.245079,139.331833 
	C80.395828,138.538544 84.219795,137.807709 88.448296,136.999542 
	C86.744354,127.364738 85.130562,118.239639 83.516769,109.114540 
	C83.857056,108.944946 84.197350,108.775352 84.537636,108.605759 
	C89.284622,116.799995 94.031609,124.994225 99.028206,133.619324 
	C103.277321,131.012817 107.113304,128.659729 110.966537,126.296059 
	C106.653519,118.662254 102.699394,111.663696 98.745277,104.665138 
	C99.064682,104.351128 99.384079,104.037109 99.703484,103.723091 
	C106.078537,108.975845 112.453590,114.228600 119.065712,119.676682 
	C122.319855,115.674385 125.210121,112.119621 128.170502,108.478615 
	C122.144218,103.325699 116.429626,98.439293 110.715027,93.552895 
	C110.891350,93.271408 111.067680,92.989929 111.244003,92.708443 
	C118.193390,95.226204 125.142784,97.743965 132.681290,100.475159 
	C134.348007,95.559517 135.911636,90.947891 137.570221,86.056236 
	C130.831757,83.492714 124.689529,81.156029 118.547302,78.819336 
	C118.644981,78.485657 118.742653,78.151985 118.840324,77.818306 
	C125.448395,77.818306 132.056473,77.818306 138.642014,77.818306 
	C138.642014,72.113220 138.642014,66.721001 138.642014,60.996540 
	C136.892822,60.996540 135.585617,60.996540 134.278412,60.996540 
	C121.964752,60.996540 109.651085,60.996540 97.285042,60.996540 
	C100.605629,79.578819 93.270088,93.159889 77.836601,97.412079 
	C62.311153,101.689606 49.686741,93.858124 42.506577,75.421249 
	C40.178139,76.248650 37.846195,77.077309 34.743736,78.103874 
M219.731522,85.729088 
	C218.213120,83.268120 216.694717,80.807159 215.182556,78.356293 
	C216.129227,77.494759 216.729263,76.928673 217.350250,76.386589 
	C225.092697,69.628052 226.945602,61.085518 224.377716,51.531300 
	C221.851273,42.131294 215.046768,36.670528 205.746002,35.959980 
	C194.566788,35.105919 183.272507,35.758045 172.076752,35.758045 
	C172.076752,58.930492 172.076752,82.328949 172.076752,105.772484 
	C178.079300,105.772484 183.819077,105.772484 190.041016,105.772484 
	C190.041016,98.125542 190.041016,90.728477 190.041016,83.603416 
	C196.734802,81.689079 200.743179,83.666908 203.182846,89.892426 
	C205.046432,94.647903 207.871689,99.044289 210.475372,103.479347 
	C211.116867,104.572044 212.534866,105.874008 213.641754,105.917679 
	C219.678024,106.155838 225.728622,106.030991 232.399948,106.030991 
	C227.980515,98.985153 224.027252,92.682518 219.731522,85.729088 
M343.608551,61.115623 
	C349.237335,52.641853 354.866119,44.168083 360.912201,35.066044 
	C354.216064,35.066044 348.563080,34.843880 342.946625,35.199299 
	C341.226410,35.308155 338.963959,36.595490 338.052765,38.039257 
	C334.288422,44.003605 330.947388,50.235096 327.097107,56.988842 
	C323.172211,50.214737 319.670288,44.051670 316.020752,37.977287 
	C315.332397,36.831615 314.085938,35.250687 313.046631,35.211666 
	C306.366913,34.960896 299.673157,35.083553 292.247620,35.083553 
	C298.978912,45.030716 304.847015,54.301132 311.368652,63.086365 
	C314.615417,67.460014 314.963715,70.455734 311.534973,75.071503 
	C304.255219,84.871429 297.790863,95.277031 290.589630,106.035759 
	C296.808167,106.035759 302.258301,105.834503 307.683990,106.111519 
	C310.919861,106.276733 312.766418,105.356812 314.302368,102.354721 
	C317.778778,95.560165 321.720428,89.003662 325.756927,81.846703 
	C330.178467,89.319595 334.144684,96.216248 338.349854,102.963966 
	C339.172424,104.283875 340.882690,105.832207 342.249695,105.897896 
	C348.676666,106.206680 355.126678,106.035294 362.266266,106.035294 
	C355.777466,96.489647 349.671295,87.466873 343.522552,78.473228 
	C337.770142,70.059250 337.750275,70.072838 343.608551,61.115623 
M284.413635,50.048687 
	C286.185303,50.048687 287.956940,50.048687 289.799744,50.048687 
	C289.799744,44.802074 289.799744,40.062305 289.799744,35.230000 
	C268.875397,35.230000 248.174271,35.230000 227.394928,35.230000 
	C227.394928,40.229633 227.394928,44.965675 227.394928,50.159866 
	C234.673203,50.159866 241.730484,50.159866 249.159302,50.159866 
	C249.159302,69.008606 249.159302,87.397736 249.159302,105.770050 
	C255.616058,105.770050 261.683990,105.770050 268.152588,105.770050 
	C268.152588,87.130302 268.152588,68.746735 268.152588,50.048683 
	C273.514099,50.048683 278.475098,50.048683 284.413635,50.048687 
M35.421177,61.095020 
	C37.970642,62.017399 40.520107,62.939777 43.114265,63.878326 
	C44.142868,61.304745 44.915890,59.370632 45.792343,57.177742 
	C32.912182,52.450294 20.198177,47.783836 7.276843,43.041279 
	C6.461716,45.199852 5.660584,47.321362 4.708733,49.841999 
	C14.829532,53.596947 24.730694,57.270409 35.421177,61.095020 
M23.223009,26.154316 
	C22.073111,25.277342 20.923212,24.400370 19.649179,23.428724 
	C18.170849,25.187466 16.925653,26.668852 15.575326,28.275311 
	C26.295172,37.322407 36.658710,46.068798 47.045383,54.834713 
	C48.706482,52.961113 49.991337,51.511890 51.466194,49.848354 
	C42.059570,41.965443 32.915684,34.302708 23.223009,26.154316 
M56.553177,46.343540 
	C57.364140,45.829739 58.175102,45.315933 58.995628,44.796066 
	C52.082706,32.757744 45.287483,20.924381 38.421890,8.968475 
	C36.647789,10.000783 35.271996,10.801323 33.749859,11.687018 
	C40.267998,23.135128 46.610767,34.349384 53.087868,45.485508 
	C53.522621,46.232986 54.973198,46.389629 56.553177,46.343540 
M66.262695,43.066658 
	C66.651939,42.175991 67.494843,41.210751 67.362534,40.405807 
	C65.294594,27.824949 63.104069,15.264204 60.911602,2.704093 
	C60.868366,2.456403 60.462185,2.272067 60.011734,1.865278 
	C58.926655,2.147505 57.695187,2.467807 56.225330,2.850113 
	C58.491604,15.789520 60.678539,28.487892 63.024620,41.156792 
	C63.168991,41.936417 64.569260,42.483471 66.262695,43.066658 
M78.322014,14.752204 
	C76.730019,24.005541 75.138023,33.258877 73.546028,42.512215 
	C73.908463,42.863476 74.270897,43.214737 74.633331,43.565998 
	C75.743370,42.737244 77.652756,42.059059 77.841560,41.056770 
	C80.078339,29.182535 82.127419,17.270718 83.991676,5.332210 
	C84.165459,4.219345 82.741821,2.857034 82.059875,1.610543 
	C81.561325,1.818017 81.062767,2.025491 80.564209,2.232965 
	C79.890823,6.126434 79.217438,10.019902 78.322014,14.752204 
M92.182831,36.750645 
	C96.990578,28.410069 101.798317,20.069490 106.606056,11.728912 
	C106.387100,11.264447 106.168144,10.799982 105.949181,10.335517 
	C104.724899,10.741460 102.869560,10.772395 102.371780,11.610062 
	C95.772743,22.714870 89.364342,33.932968 82.818413,45.278656 
	C84.133614,45.996578 85.093109,46.520332 86.166245,47.106121 
	C88.193985,43.689400 90.050865,40.560558 92.182831,36.750645 
M91.138802,51.669727 
	C92.465218,51.787598 94.298058,52.530476 95.041138,51.928391 
	C104.319557,44.410480 113.473091,36.736217 122.541809,28.965683 
	C123.318672,28.300020 123.262520,26.662153 123.593330,25.475910 
	C123.128281,25.336243 122.663231,25.196575 122.198174,25.056908 
	C111.922417,33.698284 101.646660,42.339661 91.138802,51.669727 
z"/>
<path fill="#010101" opacity="1.000000" stroke="none" 
	d="
M1.000000,66.444168 
	C14.813972,66.000000 28.627945,66.000000 42.569565,66.000000 
	C42.569565,68.659157 42.569565,71.095909 42.569565,74.089989 
	C29.061197,74.089989 15.497655,74.089989 1.467056,74.044998 
	C1.000000,71.629440 1.000000,69.258888 1.000000,66.444168 
z"/>
<path fill="#040404" opacity="1.000000" stroke="none" 
	d="
M35.128994,78.004913 
	C37.846195,77.077309 40.178139,76.248650 42.506577,75.421249 
	C49.686741,93.858124 62.311153,101.689606 77.836601,97.412079 
	C93.270088,93.159889 100.605629,79.578819 97.285042,60.996540 
	C109.651085,60.996540 121.964752,60.996540 134.278412,60.996540 
	C135.585617,60.996540 136.892822,60.996540 138.642014,60.996540 
	C138.642014,66.721001 138.642014,72.113220 138.642014,77.818306 
	C132.056473,77.818306 125.448395,77.818306 118.840324,77.818306 
	C118.742653,78.151985 118.644981,78.485657 118.547302,78.819336 
	C124.689529,81.156029 130.831757,83.492714 137.570221,86.056236 
	C135.911636,90.947891 134.348007,95.559517 132.681290,100.475159 
	C125.142784,97.743965 118.193390,95.226204 111.244003,92.708443 
	C111.067680,92.989929 110.891350,93.271408 110.715027,93.552895 
	C116.429626,98.439293 122.144218,103.325699 128.170502,108.478615 
	C125.210121,112.119621 122.319855,115.674385 119.065712,119.676682 
	C112.453590,114.228600 106.078537,108.975845 99.703484,103.723091 
	C99.384079,104.037109 99.064682,104.351128 98.745277,104.665138 
	C102.699394,111.663696 106.653519,118.662254 110.966537,126.296059 
	C107.113304,128.659729 103.277321,131.012817 99.028206,133.619324 
	C94.031609,124.994225 89.284622,116.799995 84.537636,108.605759 
	C84.197350,108.775352 83.857056,108.944946 83.516769,109.114540 
	C85.130562,118.239639 86.744354,127.364738 88.448296,136.999542 
	C84.219795,137.807709 80.395828,138.538544 76.245079,139.331833 
	C74.327789,128.472977 72.489868,118.063614 70.651947,107.654266 
	C70.431046,107.617783 70.210144,107.581299 69.989243,107.544815 
	C68.132835,117.932938 66.276436,128.321075 64.317848,139.280991 
	C60.439289,138.535172 56.778633,137.831253 52.744602,137.055527 
	C54.634605,125.924034 56.454308,115.206612 58.274010,104.489189 
	C57.928204,104.360184 57.582401,104.231171 57.236595,104.102158 
	C51.738438,113.638580 46.240280,123.175011 40.595013,132.966599 
	C37.338856,131.014359 34.401413,129.253220 31.160416,127.310066 
	C36.957703,117.137711 42.533226,107.354477 48.108749,97.571251 
	C47.796223,97.198395 47.483700,96.825546 47.171173,96.452690 
	C38.584080,103.644264 29.996984,110.835838 20.878593,118.472366 
	C18.827681,116.002708 16.772823,113.528297 14.407205,110.679680 
	C24.133110,102.303802 33.642017,94.114807 43.150928,85.925804 
	C42.971348,85.592712 42.791771,85.259613 42.612194,84.926514 
	C30.929914,89.219719 19.247635,93.512924 7.227579,97.930260 
	C6.228953,95.259872 5.204874,92.521423 4.028475,89.375656 
	C14.347881,85.588676 24.545809,81.846275 35.128994,78.004913 
z"/>
<path fill="#020202" opacity="1.000000" stroke="none" 
	d="
M219.902756,86.054489 
	C224.027252,92.682518 227.980515,98.985153 232.399948,106.030991 
	C225.728622,106.030991 219.678024,106.155838 213.641754,105.917679 
	C212.534866,105.874008 211.116867,104.572044 210.475372,103.479347 
	C207.871689,99.044289 205.046432,94.647903 203.182846,89.892426 
	C200.743179,83.666908 196.734802,81.689079 190.041016,83.603416 
	C190.041016,90.728477 190.041016,98.125542 190.041016,105.772484 
	C183.819077,105.772484 178.079300,105.772484 172.076752,105.772484 
	C172.076752,82.328949 172.076752,58.930492 172.076752,35.758045 
	C183.272507,35.758045 194.566788,35.105919 205.746002,35.959980 
	C215.046768,36.670528 221.851273,42.131294 224.377716,51.531300 
	C226.945602,61.085518 225.092697,69.628052 217.350250,76.386589 
	C216.729263,76.928673 216.129227,77.494759 215.182556,78.356293 
	C216.694717,80.807159 218.213120,83.268120 219.902756,86.054489 
M189.306320,58.522789 
	C189.306320,61.971706 189.306320,65.420624 189.306320,69.368484 
	C195.398697,69.111404 202.056442,70.918655 205.249573,64.659416 
	C206.857864,61.506779 206.947342,56.093479 205.267822,53.063835 
	C201.940536,47.061813 195.357224,48.651451 189.306335,48.695988 
	C189.306335,51.973160 189.306335,54.768234 189.306320,58.522789 
z"/>
<path fill="#030303" opacity="1.000000" stroke="none" 
	d="
M343.377319,61.395546 
	C337.750275,70.072838 337.770142,70.059250 343.522552,78.473228 
	C349.671295,87.466873 355.777466,96.489647 362.266266,106.035294 
	C355.126678,106.035294 348.676666,106.206680 342.249695,105.897896 
	C340.882690,105.832207 339.172424,104.283875 338.349854,102.963966 
	C334.144684,96.216248 330.178467,89.319595 325.756927,81.846703 
	C321.720428,89.003662 317.778778,95.560165 314.302368,102.354721 
	C312.766418,105.356812 310.919861,106.276733 307.683990,106.111519 
	C302.258301,105.834503 296.808167,106.035759 290.589630,106.035759 
	C297.790863,95.277031 304.255219,84.871429 311.534973,75.071503 
	C314.963715,70.455734 314.615417,67.460014 311.368652,63.086365 
	C304.847015,54.301132 298.978912,45.030716 292.247620,35.083553 
	C299.673157,35.083553 306.366913,34.960896 313.046631,35.211666 
	C314.085938,35.250687 315.332397,36.831615 316.020752,37.977287 
	C319.670288,44.051670 323.172211,50.214737 327.097107,56.988842 
	C330.947388,50.235096 334.288422,44.003605 338.052765,38.039257 
	C338.963959,36.595490 341.226410,35.308155 342.946625,35.199299 
	C348.563080,34.843880 354.216064,35.066044 360.912201,35.066044 
	C354.866119,44.168083 349.237335,52.641853 343.377319,61.395546 
z"/>
<path fill="#000000" opacity="1.000000" stroke="none" 
	d="
M283.924866,50.048683 
	C278.475098,50.048683 273.514099,50.048683 268.152588,50.048683 
	C268.152588,68.746735 268.152588,87.130302 268.152588,105.770050 
	C261.683990,105.770050 255.616058,105.770050 249.159302,105.770050 
	C249.159302,87.397736 249.159302,69.008606 249.159302,50.159866 
	C241.730484,50.159866 234.673203,50.159866 227.394928,50.159866 
	C227.394928,44.965675 227.394928,40.229633 227.394928,35.230000 
	C248.174271,35.230000 268.875397,35.230000 289.799744,35.230000 
	C289.799744,40.062305 289.799744,44.802074 289.799744,50.048687 
	C287.956940,50.048687 286.185303,50.048687 283.924866,50.048683 
z"/>
<path fill="#080808" opacity="1.000000" stroke="none" 
	d="
M35.026516,61.019447 
	C24.730694,57.270409 14.829532,53.596947 4.708733,49.841999 
	C5.660584,47.321362 6.461716,45.199852 7.276843,43.041279 
	C20.198177,47.783836 32.912182,52.450294 45.792343,57.177742 
	C44.915890,59.370632 44.142868,61.304745 43.114265,63.878326 
	C40.520107,62.939777 37.970642,62.017399 35.026516,61.019447 
z"/>
<path fill="#080808" opacity="1.000000" stroke="none" 
	d="
M23.497404,26.397146 
	C32.915684,34.302708 42.059570,41.965443 51.466194,49.848354 
	C49.991337,51.511890 48.706482,52.961113 47.045383,54.834713 
	C36.658710,46.068798 26.295172,37.322407 15.575326,28.275311 
	C16.925653,26.668852 18.170849,25.187466 19.649179,23.428724 
	C20.923212,24.400370 22.073111,25.277342 23.497404,26.397146 
z"/>
<path fill="#080808" opacity="1.000000" stroke="none" 
	d="
M56.252243,46.582306 
	C54.973198,46.389629 53.522621,46.232986 53.087868,45.485508 
	C46.610767,34.349384 40.267998,23.135128 33.749859,11.687018 
	C35.271996,10.801323 36.647789,10.000783 38.421890,8.968475 
	C45.287483,20.924381 52.082706,32.757744 58.995628,44.796066 
	C58.175102,45.315933 57.364140,45.829739 56.252243,46.582306 
z"/>
<path fill="#0B0B0B" opacity="1.000000" stroke="none" 
	d="
M65.823944,43.102699 
	C64.569260,42.483471 63.168991,41.936417 63.024620,41.156792 
	C60.678539,28.487892 58.491604,15.789520 56.225330,2.850113 
	C57.695187,2.467807 58.926655,2.147505 60.011734,1.865278 
	C60.462185,2.272067 60.868366,2.456403 60.911602,2.704093 
	C63.104069,15.264204 65.294594,27.824949 67.362534,40.405807 
	C67.494843,41.210751 66.651939,42.175991 65.823944,43.102699 
z"/>
<path fill="#0F0F0F" opacity="1.000000" stroke="none" 
	d="
M78.433029,14.332788 
	C79.217438,10.019902 79.890823,6.126434 80.564209,2.232965 
	C81.062767,2.025491 81.561325,1.818017 82.059875,1.610543 
	C82.741821,2.857034 84.165459,4.219345 83.991676,5.332210 
	C82.127419,17.270718 80.078339,29.182535 77.841560,41.056770 
	C77.652756,42.059059 75.743370,42.737244 74.633331,43.565998 
	C74.270897,43.214737 73.908463,42.863476 73.546028,42.512215 
	C75.138023,33.258877 76.730019,24.005541 78.433029,14.332788 
z"/>
<path fill="#0E0E0E" opacity="1.000000" stroke="none" 
	d="
M92.045288,37.091183 
	C90.050865,40.560558 88.193985,43.689400 86.166245,47.106121 
	C85.093109,46.520332 84.133614,45.996578 82.818413,45.278656 
	C89.364342,33.932968 95.772743,22.714870 102.371780,11.610062 
	C102.869560,10.772395 104.724899,10.741460 105.949181,10.335517 
	C106.168144,10.799982 106.387100,11.264447 106.606056,11.728912 
	C101.798317,20.069490 96.990578,28.410069 92.045288,37.091183 
z"/>
<path fill="#111111" opacity="1.000000" stroke="none" 
	d="
M91.254852,51.325382 
	C101.646660,42.339661 111.922417,33.698284 122.198174,25.056908 
	C122.663231,25.196575 123.128281,25.336243 123.593330,25.475910 
	C123.262520,26.662153 123.318672,28.300020 122.541809,28.965683 
	C113.473091,36.736217 104.319557,44.410480 95.041138,51.928391 
	C94.298058,52.530476 92.465218,51.787598 91.254852,51.325382 
z"/>
<path fill="#F6F6F6" opacity="1.000000" stroke="none" 
	d="
M189.306335,58.043049 
	C189.306335,54.768234 189.306335,51.973160 189.306335,48.695988 
	C195.357224,48.651451 201.940536,47.061813 205.267822,53.063835 
	C206.947342,56.093479 206.857864,61.506779 205.249573,64.659416 
	C202.056442,70.918655 195.398697,69.111404 189.306320,69.368484 
	C189.306320,65.420624 189.306320,61.971706 189.306335,58.043049 
z"/>
</svg>